<svg xmlns="http://www.w3.org/2000/svg" viewBox="0 0 24 24"><path fill-rule="evenodd" d="M19.532 12.8c.255-.174.568-.238.87-.178.297.059.49.35.433.652-.058.3-.346.497-.643.438-.017-.003-.034 0-.049.01l-.002.002c-.464.314-.681.844-.61 1.331l.01.022c.014.027.032.068.048.119.092.292-.067.604-.356.697-.277.09-.574-.057-.677-.33l-.007-.012-.001-.004c-.016-.029-.063-.118-.085-.234-.178-.952.235-1.948 1.07-2.514l.304.463-.305-.461Z" clip-rule="evenodd"/><path fill-rule="evenodd" d="M13.618 4.281c.3-.038.573.178.61.483l.01.046.011.054c.012.058.031.154.031.268 0 .95-.506 1.753-1.192 2.18-.651.405-1.394.526-2.076.535-.302.005-.551-.24-.555-.547-.005-.307.237-.56.54-.564.58-.008 1.1-.111 1.518-.37.38-.238.67-.69.67-1.231l-.007-.038-.007-.033-.01-.043c-.006-.032-.013-.073-.019-.12-.037-.304.176-.582.476-.62Z" clip-rule="evenodd"/><path fill-rule="evenodd" d="M3.089 8.409c0-.307.245-.556.547-.556.593 0 1.288.114 1.888.4.602.288 1.114.735 1.401 1.411.12.282-.009.609-.287.73-.277.122-.6-.008-.719-.29-.159-.375-.445-.646-.862-.846-.42-.2-.947-.294-1.42-.294-.303 0-.548-.249-.548-.555Z" clip-rule="evenodd"/><path fill-rule="evenodd" d="M4.631 3.767c1.162-.825 2.682-1.267 4.327-1.267 1.09 0 2.373.133 3.481.602.48.204.948.48 1.341.875.667-.356 1.407-.551 2.175-.551 2.377 0 4.286 1.874 4.702 4.226 1.667.522 2.843 2.175 2.843 4.045 0 1.048-.29 2.068-.891 2.872-.61.813-1.572 1.386-2.699 1.386-.226 0-.434-.035-.623-.09-.18.276-.393.544-.653.784-.516.478-1.232.85-2.07.85-.795 0-1.441-.181-1.973-.48-1.033.965-2.548 1.405-4.112 1.405-.303 0-.548-.248-.548-.555 0-.307.245-.556.548-.556 1.555 0 2.874-.49 3.615-1.368.188-.222.513-.258.744-.084.402.305.941.526 1.726.526.509 0 .973-.226 1.332-.558.271-.251.487-.562.678-.917.14-.26.458-.363.72-.233.21.104.407.165.616.165.746 0 1.4-.377 1.827-.947.433-.58.668-1.352.668-2.2 0-1.519-1.027-2.79-2.344-3.052-.235-.047-.413-.245-.439-.487-.214-2.05-1.8-3.621-3.667-3.621-.712 0-1.402.222-2.007.63-.244.165-.573.105-.746-.135-.028-.04-.05-.077-.063-.103l-.027-.052c-.28-.322-.652-.562-1.095-.75-.917-.388-2.037-.516-3.06-.516-1.458 0-2.75.393-3.697 1.066-.946.672-1.535 1.643-1.535 2.7 0 .213.059.463.136.795l.04.167c.066.289-.102.58-.384.661-1.055.305-1.922 1.346-1.922 2.687 0 1.244.69 2.282 1.675 2.758.237.115.36.384.294.642-.02.083-.06.23-.112.424-.193.716-.56 2.08-.835 3.282-.044.19-.084.372-.12.546.422-.456.922-.958 1.427-1.447.969-.936 2.005-1.867 2.666-2.405 1.32-1.073 2.84-1.877 4.193-1.877.303 0 .548.249.548.556 0 .306-.245.555-.548.555-.977 0-2.25.611-3.508 1.633-.628.51-1.64 1.42-2.595 2.343-.967.934-1.83 1.84-2.19 2.355-.072.103-.164.221-.277.307-.057.043-.157.109-.294.132-.162.028-.337-.01-.48-.126-.12-.1-.175-.221-.2-.292-.027-.077-.039-.15-.045-.208-.012-.114-.009-.239 0-.356.033-.465.181-1.204.356-1.968.278-1.213.652-2.606.844-3.32-1.142-.728-1.894-2.032-1.894-3.534 0-1.637.945-2.984 2.224-3.572-.051-.24-.094-.499-.094-.739 0-1.501.837-2.78 2.001-3.609Zm-2.348 16.978v-.001.001Z" clip-rule="evenodd"/><path fill-rule="evenodd" d="M17.23 13c.084.296-.083.604-.373.69-.755.221-1.19.576-1.445.976-.262.41-.375.927-.375 1.537 0 .307-.245.556-.548.556-.302 0-.547-.25-.547-.556 0-.738.135-1.492.551-2.142.423-.661 1.097-1.156 2.059-1.439.29-.085.594.084.678.379Z" clip-rule="evenodd"/><path fill-rule="evenodd" d="M15.334 7.571c.291-.084.594.087.677.382.123.435.43.765.785.974.364.214.754.31 1.104.31.65 0 1.14-.216 1.442-.516.152-.15.255-.333.334-.555.104-.288.418-.437.703-.332.284.105.43.424.326.713-.118.33-.297.67-.597.968-.539.535-1.32.834-2.208.834-.543 0-1.123-.15-1.653-.46-.54-.318-1.07-.857-1.289-1.63-.083-.296.086-.603.376-.688Z" clip-rule="evenodd"/></svg>