<svg xmlns="http://www.w3.org/2000/svg" viewBox="0 0 24 24"><g clip-path="url(#a)"><path fill-rule="evenodd" d="M12.02 2.024c-5.374 0-9.73 4.356-9.73 9.73 0 1.576.374 3.063 1.038 4.378l-.914.461c-.735-1.455-1.148-3.1-1.148-4.84 0-5.938 4.814-10.753 10.754-10.753 1.681 0 3.274.386 4.693 1.076l-.448.92c-1.282-.622-2.722-.972-4.245-.972Zm9.73 9.73c0-1.385-.29-2.7-.81-3.892l.938-.41c.576 1.318.895 2.773.895 4.302 0 5.939-4.814 10.754-10.753 10.754-1.529 0-2.984-.32-4.302-.895l.41-.939c1.19.52 2.507.81 3.892.81 5.373 0 9.73-4.357 9.73-9.73Z" clip-rule="evenodd"/><path stroke="#A8A8A8" stroke-linecap="round" stroke-linejoin="round" stroke-width="1.1" d="m1 18.354 2.574-2.574c.088-.082.15-.188.177-.304.028-.117.02-.24-.022-.352-.29-.637-.379-1.349-.252-2.038.127-.688.462-1.322.96-1.814.317-.325.695-.583 1.114-.758.418-.175.868-.264 1.322-.261h.017c.472-.002.94.095 1.374.282.434.188.824.463 1.147.808.322.345.57.754.728 1.199.158.445.222.919.188 1.39.075-.009.15-.009.225 0 .518-.003 1.03.111 1.498.333.468.221.88.545 1.207.948.326.403.558.873.678 1.377s.125 1.029.015 1.535-.333.982-.65 1.39c-.32.41-.725.741-1.189.972-.464.231-.974.355-1.492.362-.518.008-1.03-.101-1.501-.319-.11-.041-.23-.048-.343-.02-.114.027-.217.088-.296.175l-2.574 2.574"/><path stroke="#A8A8A8" stroke-linecap="round" stroke-linejoin="round" stroke-width="1.1" d="m23 5.94-2.573 2.574c-.088.082-.15.188-.178.305-.027.117-.02.239.022.351.291.638.38 1.349.252 2.038-.126.689-.461 1.322-.96 1.814-.316.325-.695.583-1.113.758-.42.176-.869.264-1.322.261h-.018c-.472.002-.94-.094-1.374-.282-.433-.187-.824-.463-1.146-.808-.323-.345-.57-.753-.729-1.199-.157-.445-.221-.918-.188-1.39-.074.009-.15.009-.224 0-.518.003-1.03-.11-1.499-.332-.468-.222-.88-.546-1.207-.949-.326-.402-.558-.873-.677-1.377-.12-.504-.125-1.029-.016-1.535.11-.506.333-.981.651-1.39.318-.409.724-.741 1.188-.972.464-.23.974-.354 1.492-.362.518-.007 1.031.102 1.501.32.11.04.23.048.344.02.114-.028.217-.09.295-.176l2.574-2.574"/></g><defs><clipPath id="a"><path d="M0 0h24v24h-24z"/></clipPath></defs></svg>