<svg xmlns="http://www.w3.org/2000/svg" viewBox="0 0 24 24"><g clip-path="url(#a)"><path fill-rule="evenodd" d="m3 22.5-.275-.476c-.263.152-.353.489-.2.752.151.263.487.352.75.2l.006-.002.024-.014.108-.058c.097-.05.246-.124.442-.214.393-.18.978-.421 1.734-.664 1.512-.486 3.705-.974 6.411-.974 2.706 0 4.9.488 6.411.974.756.243 1.341.485 1.734.664.197.09.345.164.442.215.05.025.085.044.108.057l.025.014.005.002c.262.152.6.063.751-.2.152-.263.063-.6-.2-.752l-.276.476.276-.476h-.002l-.003-.003-.01-.005-.036-.02-.13-.07c-.114-.058-.279-.14-.493-.238-.428-.196-1.053-.454-1.855-.711-1.601-.515-3.908-1.027-6.747-1.027-2.838 0-5.145.512-6.747 1.027-.801.257-1.427.515-1.855.71-.214.098-.379.18-.492.24-.057.029-.1.052-.13.069l-.036.02-.01.005-.003.002-.002.001.275.476Z" clip-rule="evenodd"/><path fill-rule="evenodd" d="M2.254 18.988Zm0 0 .006-.003.029-.014c.026-.013.066-.033.121-.058.11-.052.276-.126.495-.216.44-.181 1.094-.424 1.938-.668 1.688-.488 4.136-.979 7.157-.979 3.02 0 5.47.49 7.158.979.844.244 1.497.487 1.937.668.22.09.386.165.495.216.055.025.096.045.122.058l.028.014.006.003c.27.14.602.036.742-.234.14-.269.036-.601-.234-.742l-.254.488.254-.488h-.002l-.003-.002-.011-.006-.039-.02-.143-.068c-.125-.058-.306-.14-.543-.237-.473-.194-1.164-.451-2.05-.707-1.771-.512-4.323-1.022-7.463-1.022-3.14 0-5.691.51-7.463 1.022-.886.256-1.577.513-2.05.707-.236.097-.418.179-.543.237l-.143.069-.039.02-.01.005-.004.002h-.001l.253.488-.253-.488c-.27.14-.375.473-.235.742.14.27.473.374.742.234Z" clip-rule="evenodd"/><path fill-rule="evenodd" d="M1.235 14.998Zm0 0h.001l.007-.004.032-.014c.029-.014.074-.034.135-.06.122-.051.305-.126.548-.217.487-.182 1.209-.426 2.14-.67 1.865-.49 4.568-.983 7.902-.983 3.334 0 6.037.492 7.902.982.932.245 1.654.49 2.14.671.243.09.427.166.548.218.061.025.106.045.136.059l.031.014.007.003h.001c.274.13.602.013.732-.261.13-.275.013-.603-.261-.733l-.21.444.21-.444h-.002l-.004-.002-.012-.006-.041-.019-.157-.068c-.135-.057-.334-.139-.593-.235-.518-.194-1.275-.45-2.246-.705-1.941-.51-4.739-1.018-8.18-1.018-3.443 0-6.24.508-8.182 1.018-.97.255-1.728.511-2.246.705-.258.096-.457.178-.593.235l-.156.068-.042.02-.012.005-.003.001h-.001c0 .001-.001.001.234.498l-.234-.497c-.275.13-.393.458-.263.733.13.274.458.391.732.261Z" clip-rule="evenodd"/><path fill-rule="evenodd" d="m4 10.5-.3-.46c-.254.165-.326.506-.16.76.165.255.505.327.76.161l.004-.002.021-.013.094-.057c.086-.05.216-.123.39-.212.346-.178.862-.418 1.53-.66 1.335-.482 3.272-.967 5.661-.967 2.39 0 4.326.485 5.661.968.668.24 1.184.481 1.53.66.174.088.305.161.39.211l.094.057.021.013.004.002c.255.165.596.094.761-.16.166-.255.094-.596-.16-.762l-.3.461.3-.46-.003-.002-.003-.002-.01-.006-.031-.02-.118-.07c-.102-.06-.25-.143-.441-.241-.384-.197-.943-.457-1.66-.716-1.432-.517-3.496-1.033-6.035-1.033s-4.602.516-6.035 1.033c-.716.259-1.276.519-1.66.716-.191.098-.339.181-.44.24-.052.03-.09.054-.118.071l-.033.02-.009.006-.003.002-.002.001.3.461Zm.3.461Z" clip-rule="evenodd"/><path d="M11.5 6c0-.276.224-.5.5-.5s.5.224.5.5v16c0 .276-.224.5-.5.5s-.5-.224-.5-.5v-16Z"/><path fill-rule="evenodd" d="M16.37.473c.292.086.459.391.373.683-.175.593-.498 1.276-1.123 1.575-.005.065-.009.145-.009.242 0 .901-.364 1.665-1.033 2.19-.654.514-1.552.764-2.58.764-1.026 0-1.924-.25-2.578-.764-.669-.525-1.033-1.289-1.033-2.19 0-.097-.004-.177-.01-.242-.623-.3-.947-.983-1.121-1.575-.086-.292.081-.598.372-.683.292-.086.598.08.683.372.192.653.44.889.65.929l.317.06.103.305c.054.16.106.42.106.834 0 .58.222 1.019.612 1.325.405.318 1.038.529 1.9.529.861 0 1.495-.21 1.9-.529.39-.306.612-.744.612-1.325 0-.412.05-.674.108-.84l.105-.3.312-.06c.212-.04.46-.276.652-.928.086-.291.391-.458.683-.372Z" clip-rule="evenodd"/></g><defs><clipPath id="a"><path d="M0 0h24v24h-24z"/></clipPath></defs></svg>