<svg xmlns="http://www.w3.org/2000/svg" viewBox="0 0 24 25"><path fill-rule="evenodd" d="M16.994 2.595c-1.351 0-2.704.492-3.72 1.477-.663.644-1.177 1.491-1.456 2.54l-.007.07-.028.296-.083.896-.07.754-.05.526c-.022.65-.43 1.118-.925 1.405-.49.285-1.116.43-1.758.452-1.272.044-2.815-.391-3.76-1.526-.924-1.109-1.172-2.63-1.214-3.794-.021-.594.01-1.122.047-1.502.019-.19.039-.345.054-.453l.02-.126.006-.035.001-.01v-.003l.001-.001.54.097.538.098-.001.006-.004.025-.016.105c-.014.094-.032.231-.048.403-.034.345-.063.823-.043 1.357.038 1.091.274 2.308.96 3.132.665.798 1.832 1.168 2.881 1.132.519-.018.956-.135 1.246-.304.287-.166.376-.341.381-.497.001-.03.064-.71.123-1.342l.084-.898c.011-.122.02-.225.028-.298l.008-.087.003-.027.002-.014.001-.012.003-.015.01-.047c.325-1.254.943-2.293 1.764-3.09 1.236-1.199 2.87-1.785 4.482-1.785 1.613 0 3.247.586 4.483 1.786 1.251 1.213 2.023 2.983 2.023 5.204v7.087c0 2.03-.335 4.225-1.415 5.948-1.133 1.81-3.012 2.975-5.74 2.975-2.83 0-4.786-1.688-6.423-3.1l-.081-.07c-1.678-1.449-3.108-2.664-5.113-2.95-.94.015-1.528.301-1.925.654-.43.383-.728.929-.922 1.563-.194.632-.264 1.285-.281 1.795-.009.252-.004.46.002.601l-1.094.048c-.007-.165-.012-.402-.003-.686.02-.569.097-1.325.328-2.079.232-.754.615-1.502 1.242-2.06.589-.524 1.4-.888 2.52-.928.082-.048.17-.095.257-.138.157-.08.345-.167.55-.262l.058-.027c.4-.187.876-.407 1.378-.672 1.065-.562 2.193-1.295 2.929-2.237.596-.765.708-1.397.719-2.568l1.095.01c-.012 1.27-.138 2.19-.95 3.231-.882 1.13-2.179 1.95-3.281 2.532-.36.19-.706.358-1.016.504 1.62.593 2.905 1.703 4.172 2.796l.122.106c1.676 1.446 3.344 2.842 5.716 2.842 2.364 0 3.887-.983 4.813-2.462.922-1.471 1.248-3.425 1.248-5.366v-7.087c0-1.956-.673-3.432-1.69-4.418-1.016-.985-2.37-1.477-3.72-1.477Z" clip-rule="evenodd"/><path fill-rule="evenodd" d="M.5 23.888v-1.289h1.095v1.289c0 .302-.245.547-.547.547-.303 0-.548-.245-.548-.547Z" clip-rule="evenodd"/><path fill-rule="evenodd" d="m11.217 12.604.004-.001.015-.006.062-.02c.055-.02.136-.046.238-.078.204-.065.491-.151.822-.236.671-.174 1.476-.333 2.117-.326.956.011 1.448.363 2.034.803l.048.037c.604.455 1.32.994 2.589 1.08.733.048 1.719-.035 2.494-.124.393-.045.742-.093.994-.13l.297-.045.081-.013.022-.004h.007c.299-.05.501-.332.452-.63-.05-.3-.332-.5-.63-.451h-.006l-.02.004-.076.012c-.067.01-.164.026-.286.043-.243.036-.581.082-.96.126-.771.088-1.67.16-2.296.118-.943-.063-1.436-.434-2.026-.878l-.026-.02c-.63-.474-1.36-1.008-2.68-1.023-.79-.01-1.71.18-2.404.36-.353.092-.659.183-.877.252l-.258.084-.07.024-.02.007-.005.002h-.002l.183.517-.183-.517c-.285.102-.435.415-.334.7.102.285.415.434.7.333Z" clip-rule="evenodd"/><path fill-rule="evenodd" d="M11.024 11c.303 0 .548.245.548.548v-.097c0 .302-.245.547-.548.547-.302 0-.547-.245-.547-.547v.097c0-.303.245-.548.547-.548Z" clip-rule="evenodd"/><path fill-rule="evenodd" d="M4.667 3.1c.3.04.51.315.471.615l-.11.83c-.04.3-.314.511-.614.471-.3-.04-.51-.314-.471-.614l.11-.83c.04-.3.314-.511.614-.472Z" clip-rule="evenodd"/></svg>