<svg xmlns="http://www.w3.org/2000/svg" viewBox="0 0 24 24"><path d="m5.14 1.54.245.491-.245-.492Zm.055-.022.148.53-.148-.53Zm-.367.176.246.493-.246-.493Zm-.072.054-.366-.41.366.41Zm-.03.026.334.437.01-.008-.344-.429Zm-.004.003.33.44.005-.003-.335-.437Zm-.602 1.133.549.025-.55-.025Zm-.19.474-.414-.362.413.362Zm-.378.718.532.14-.532-.14Zm.835 1.789.227-.501-.227.5Zm1.836-.554.43.342-.43-.342Zm.346-.23-.158-.528.158.527Zm1.574-1.091.437.334-.437-.334Zm.3-.226-.264-.482.264.482Zm.235-.11-.215-.505.215.506Zm.247-.115-.269-.48.27.48Zm.863-.858.495.239-.495-.24Zm-.17-1.252-.428.345.429-.345Zm-1.145-.337-.134-.534.134.534Zm-.415-.02.181-.52-.18.52Zm-1.458.203.308.456-.308-.456Zm-.354.116-.036.55.036-.55Zm1.84 5.255-.49-.248.49.248Zm3.331-2.041.014-.55h-.014v.55Zm-3.438 5.347-.497.235.497-.235Zm2.4 2.093-.194.514h.001l.193-.514Zm.32.31.51-.207-.003-.006-.507.213Zm-.008.446.5.228-.5-.228Zm.606 3.82-.365.412.365-.412Zm.186.467-.548-.048v.005l.548.043Zm-.264.428.283.471.004-.002-.287-.47Zm-.203.131-.316-.45v.001l.316.45Zm-1.313 2.298.55-.012-.55.012Zm1.327 2.123-.296.464.296-.463Zm2.549.883-.05.548.05-.548Zm6.693-5.315.539.108-.54-.108Zm-3.405-10.646-.402.375.402-.375Zm-5.233-2.38.026-.55h-.012l-.014.55Zm-6.249-2.605c-.01.006-.025.012-.042.016l-.295-1.06c-.056.016-.107.037-.154.06l.491.984Zm-.311.156.311-.156-.49-.984-.312.155.49.985Zm.047-.028.01-.009-.003.003c-.007.006-.026.02-.054.034l-.491-.985c-.104.052-.18.123-.193.136l.731.821Zm-.05.044.05-.044-.731-.821-.01.008c-.002.002-.001.001 0 0l.69.857Zm-.014.01.003-.002-.669-.873-.003.002.669.874Zm-.388.722c.014-.299.131-.528.384-.719l-.662-.879c-.513.387-.792.92-.82 1.548l1.098.05Zm-.326.812c.205-.235.312-.507.326-.812l-1.099-.05c-.003.06-.016.093-.054.137l.827.725Zm-.26.494c.05-.187.135-.351.26-.495l-.828-.724c-.241.277-.405.595-.495.94l1.064.28Zm.53 1.149c-.423-.192-.654-.67-.53-1.149l-1.063-.279c-.258.982.214 2.01 1.14 2.43l.454-1.002Zm1.18-.395c-.372.467-.822.557-1.18.395l-.453 1.002c.911.413 1.88.06 2.494-.713l-.862-.684Zm.617-.415c-.227.068-.461.217-.618.415l.862.684.006-.006c.005-.005.013-.011.023-.017.02-.014.038-.021.044-.023l-.317-1.053Zm1.297-.899c-.339.442-.76.738-1.296.898l.316 1.054c.762-.229 1.377-.662 1.853-1.283l-.873-.669Zm.472-.373c-.1.055-.32.174-.473.374l.874.667c-.009.013-.01.008.017-.01.026-.018.06-.039.111-.067l-.53-.964Zm.284-.133c-.076.032-.18.076-.284.133l.529.964c.048-.026.102-.05.186-.085l-.431-1.012Zm.193-.09c-.049.028-.105.052-.193.09l.43 1.012c.08-.034.192-.081.302-.143l-.54-.959Zm.637-.617c-.12.248-.33.445-.637.617l.539.96c.429-.242.839-.583 1.088-1.1l-.99-.477Zm-.103-.668c.105.13.152.24.166.333.013.088.004.196-.063.335l.99.478c.154-.319.21-.65.16-.98-.05-.325-.199-.612-.396-.857l-.857.69Zm-.584-.149c.166-.041.28-.036.357-.014.07.02.146.062.227.163l.857-.69c-.211-.263-.477-.446-.79-.533-.307-.086-.62-.067-.918.007l.267 1.067Zm-.728-.034c.22.077.489.095.729.034l-.268-1.067c-.004.001-.02.004-.046.003s-.045-.006-.054-.01l-.361 1.04Zm-.97.14c.325-.22.621-.261.97-.14l.36-1.04c-.695-.241-1.351-.133-1.946.268l.616.912Zm-.697.21c.285.017.545-.108.697-.21l-.615-.912-.022.013-.023.01c-.007.002-.009.002-.005.002.003-.001.016-.003.037-.002l-.07 1.098Zm-.868.08c.276-.077.562-.1.867-.08l.07-1.099c-.408-.026-.82.005-1.232.12l.295 1.06Zm3.235 4.873c.552-1.092 1.612-1.74 2.84-1.74v-1.1c-1.64 0-3.08.878-3.822 2.344l.982.496Zm-.101 2.823c-.408-.862-.386-1.857.101-2.823l-.982-.495c-.625 1.24-.68 2.591-.114 3.788l.995-.47Zm2.096 1.813c-.994-.374-1.725-1.029-2.097-1.814l-.994.47c.512 1.081 1.484 1.914 2.703 2.373l.388-1.029Zm.633.612c-.116-.277-.341-.503-.633-.612l-.387 1.03c-.002-.001.003 0 .006.009l1.014-.427Zm-.014.887c.127-.28.132-.598.017-.881l-1.02.415c.002.002.002.005.002.006v.004l1 .456Zm.47 3.18c-.507-.45-.76-.893-.834-1.362-.076-.48.021-1.066.363-1.818l-1-.456c-.395.865-.572 1.677-.45 2.446.124.78.543 1.439 1.191 2.013l.73-.822Zm.369.927c.03-.348-.105-.693-.37-.927l-.728.824s.002.003.002.007l1.096.096Zm-.525.85c.299-.184.497-.5.525-.855l-1.096-.086c0-.002 0-.002 0 0l-.003.002.574.938Zm-.173.111c.054-.038.11-.074.17-.11l-.567-.943c-.08.049-.159.099-.236.153l.633.9Zm-1.08 1.836c-.013-.635.34-1.314 1.08-1.836l-.634-.899c-.964.68-1.569 1.676-1.546 2.758l1.1-.023Zm1.074 1.672c-.706-.452-1.062-1.072-1.074-1.672l-1.1.023c.022 1.042.636 1.97 1.58 2.576l.594-.927Zm2.301.798c-.774-.07-1.619-.361-2.301-.798l-.593.927c.826.528 1.84.88 2.795.967l.1-1.096Zm6.104-4.875c-.605 3.03-3.253 5.13-6.104 4.875l-.098 1.096c3.47.31 6.578-2.237 7.281-5.755l-1.079-.216Zm-3.267-10.163c2.92 3.133 3.989 6.541 3.267 10.164l1.079.215c.801-4.02-.418-7.777-3.541-11.129l-.805.75Zm-4.857-2.205c1.957.094 3.581.835 4.857 2.205l.805-.75c-1.48-1.589-3.379-2.447-5.61-2.554l-.053 1.099Zm-.205-.005.217.005.028-1.1-.216-.005-.029 1.1Z"/></svg>