<svg xmlns="http://www.w3.org/2000/svg" viewBox="0 0 24 24"><path fill-rule="evenodd" d="M22.724 1.31c.381.4.366 1.033-.034 1.414l-19.19 18.276h18.5c.552 0 1 .448 1 1s-.448 1-1 1h-18.5c-1.805 0-2.687-2.203-1.38-3.448l19.19-18.276c.4-.381 1.033-.366 1.414.034Z" clip-rule="evenodd"/><path fill-rule="evenodd" d="M12.185 10.42c.32-.45.944-.555 1.394-.235.416.295.813.614 1.19.955.41.37.442 1.003.071 1.412-.37.41-1.002.442-1.412.072-.32-.289-.655-.559-1.007-.809-.45-.32-.556-.944-.236-1.394Zm3.2 2.754c.455-.312 1.077-.195 1.39.26.571.837 1.047 1.744 1.41 2.706.194.517-.067 1.094-.583 1.289-.517.195-1.094-.066-1.289-.583-.305-.81-.706-1.575-1.19-2.282-.311-.456-.195-1.078.261-1.39Zm2.413 5.058c.548-.066 1.046.325 1.111.874.06.5.091 1.01.091 1.525 0 .124-.002.248-.005.372-.004.13-.033.254-.082.367.036.118.05.245.039.375-.011.124-.024.248-.038.37-.064.55-.56.942-1.109.878-.548-.064-.941-.56-.878-1.109.013-.103.023-.207.032-.312.01-.11.037-.214.078-.31-.03-.1-.045-.207-.041-.317.003-.104.004-.21.004-.314 0-.436-.026-.866-.076-1.288-.066-.548.325-1.046.874-1.111Z" clip-rule="evenodd"/></svg>