<svg xmlns="http://www.w3.org/2000/svg" viewBox="0 0 24 24"><path fill-rule="evenodd" d="M10.193.028c.261.09.4.375.309.636-.27.777-.602 1.53-.997 2.252l-.002.005c-.552.983-1.175 1.709-1.89 2.008l-.004.001c-1.029.422-2.848 1.357-4.023 2.901-.38.501-.586 1.113-.586 1.743v.004c-.005.603.225 1.184.64 1.62.664.635 1.434 1.148 2.276 1.515l.009.004.009.004c.595.287 1.17.616 1.718.983l.01.007c.912.641 2.054 2.023 2.628 2.75.814 1.015 1.554 2.086 2.215 3.206l.009.014.008.015c.34.676.853 1.25 1.487 1.66.856.465 1.823.685 2.795.637l.02-.001h.019c1.052.03 2.105-.026 3.148-.166.26-.05.44-.104.556-.156-.143-.105-.429-.254-.994-.476l-.49-.19h-.003l-.523-.208c-1.125-.44-1.487-.737-2.097-1.236-.24-.196-.518-.424-.896-.704l-.026-.019-.023-.022c-.396-.38-.5-.89-.57-1.327l-.043-.287c-.054-.376-.11-.762-.25-1.201l-.003-.006-.097-.32c-.222-.728-.466-1.529-.691-2.32-.62-2.186-.245-4.126-.027-5.253l.019-.099c.012-.053.023-.107.034-.165l.021-.103.006-.03.01-.028c.348-1.034.802-2.029 1.356-2.969.713-1.353 1.505-2.661 2.374-3.92.157-.227.468-.284.695-.127.228.157.285.468.128.696-.848 1.228-1.622 2.506-2.318 3.828l-.005.01-.007.01c-.516.875-.94 1.8-1.266 2.762l-.013.066v.002l-.037.178-.012.064c-.217 1.12-.548 2.857.003 4.805.223.78.465 1.573.687 2.303l.096.315c.167.524.237 1.007.292 1.388l.036.244c.067.42.136.617.256.743.438.326.734.569.972.764.55.45.788.645 1.76 1.027h.002l.523.207.003.002.488.19c.612.24 1.029.441 1.292.654.14.114.257.246.332.41.076.166.09.324.087.456l-.002.046-.01.046c-.073.335-.33.538-.563.66-.24.124-.546.211-.893.275l-.011.002-.012.002c-1.095.148-2.2.208-3.303.177-1.156.054-2.305-.211-3.32-.767l-.016-.008-.015-.01c-.787-.505-1.424-1.212-1.847-2.046-.635-1.074-1.346-2.102-2.127-3.076l-.003-.003c-.589-.747-1.643-2.005-2.415-2.55-.506-.339-1.035-.641-1.583-.906-.95-.416-1.819-.995-2.567-1.712l-.008-.008-.007-.007c-.6-.625-.933-1.46-.926-2.327 0-.847.277-1.67.79-2.346 1.335-1.755 3.351-2.774 4.438-3.22.398-.167.882-.646 1.401-1.572.367-.672.677-1.374.928-2.097.09-.261.375-.4.636-.31Z" clip-rule="evenodd"/><path fill-rule="evenodd" d="M9.085 6.989c.218-.21.225-.559.014-.778-.21-.218-.559-.225-.778-.014l.373.387-.373-.387-.002.002-.004.004-.011.011-.037.038c-.03.031-.072.076-.12.131-.097.11-.225.27-.35.46-.229.352-.525.939-.4 1.568.13.663.7 1.095 1.077 1.326.208.127.408.223.554.286.074.032.135.057.18.074l.053.02.016.005.005.002h.002v.001l.18-.52-.18.52c.288.098.601-.055.7-.342.098-.288-.055-.6-.343-.699l-.007-.002-.033-.013c-.031-.011-.077-.03-.134-.054-.114-.05-.266-.123-.42-.217-.344-.21-.538-.428-.571-.6-.038-.188.05-.457.244-.756.088-.135.182-.252.254-.334.036-.041.066-.073.086-.094l.021-.022.004-.003Z" clip-rule="evenodd"/></svg>