<svg xmlns="http://www.w3.org/2000/svg" viewBox="0 0 24 24"><g fill-rule="evenodd" clip-path="url(#a)" clip-rule="evenodd"><path d="M1.393 18.364c-.78-.781-.78-2.047 0-2.829l14.143-14.142c.78-.78 2.047-.78 2.828 0l4.243 4.243c.78.781.78 2.047 0 2.828l-11.296 11.296c-.39.39-1.024.39-1.415 0-.39-.39-.39-1.023 0-1.414l11.296-11.296-4.242-4.242-14.142 14.142 4.343 4.343c.39.39.39 1.024 0 1.414-.39.39-1.024.39-1.414 0l-4.344-4.343Z"/><path d="M9.172 20.485c.39.39.39 1.024 0 1.415l-.708.707c-.78.78-2.047.78-2.828 0l-.707-.707c-.39-.391-.39-1.024 0-1.415.39-.39 1.024-.39 1.414 0l.707.707.707-.707c.39-.39 1.024-.39 1.415 0Z"/><path d="M3.201 14.586c.39-.39 1.024-.39 1.414 0l2.122 2.121c.39.39.39 1.024 0 1.414-.391.39-1.024.39-1.415 0l-2.121-2.121c-.39-.39-.39-1.024 0-1.414Z"/><path d="M6.03 11.757c.39-.39 1.023-.39 1.414 0l1.414 1.415c.39.39.39 1.023 0 1.414-.39.39-1.024.39-1.414 0l-1.415-1.414c-.39-.39-.39-1.024 0-1.415Z"/><path d="M8.858 8.929c.39-.39 1.024-.39 1.414 0l1.414 1.414c.39.39.39 1.024 0 1.414-.39.39-1.023.39-1.414 0l-1.414-1.414c-.39-.39-.39-1.024 0-1.414Z"/><path d="M11.686 6.1c.39-.39 1.024-.39 1.415 0l1.414 1.415c.39.39.39 1.023 0 1.414-.39.39-1.024.39-1.415 0l-1.414-1.414c-.39-.39-.39-1.024 0-1.414Z"/><path d="M14.515 3.272c.39-.39 1.023-.39 1.414 0l2.121 2.121c.39.391.39 1.024 0 1.415-.39.39-1.024.39-1.414 0l-2.121-2.122c-.39-.39-.39-1.023 0-1.414Z"/></g><defs><clipPath id="a"><path d="M0 0h24v24h-24z"/></clipPath></defs></svg>