<svg xmlns="http://www.w3.org/2000/svg" viewBox="0 0 24 24"><path fill-rule="evenodd" d="M2 9c0-.552.448-1 1-1h14c2.761 0 5 2.239 5 5v2c0 2.761-2.239 5-5 5h-9c-.552 0-1-.448-1-1s.448-1 1-1h9c1.657 0 3-1.343 3-3v-2c0-1.657-1.343-3-3-3h-14c-.552 0-1-.448-1-1Z" clip-rule="evenodd"/><path fill-rule="evenodd" d="M7.95 4.053c.39.39.39 1.024 0 1.414l-4.243 4.243c-.39.39-1.024.39-1.414 0-.39-.39-.39-1.024 0-1.414l4.243-4.243c.39-.39 1.023-.39 1.414 0Zm-2.657 7.243c.39-.39 1.024-.39 1.414 0l1.414 1.414c.39.39.39 1.023 0 1.414-.39.39-1.023.39-1.414 0l-1.414-1.414c-.39-.39-.39-1.024 0-1.414Z" clip-rule="evenodd"/></svg>