<svg xmlns="http://www.w3.org/2000/svg" viewBox="0 0 24 24"><g clip-path="url(#a)"><path fill-rule="evenodd" d="M11.702 4.855c1.46-2.529 4.694-3.396 7.223-1.935 2.527 1.459 3.395 4.69 1.938 7.219l-.172.297-.5.866c-.277.478-.889.641-1.367.365-.478-.277-.641-.889-.365-1.367l.67-1.16c.907-1.572.367-3.581-1.204-4.488-1.572-.908-3.583-.37-4.49 1.203l-4.643 8.04c-.315.547-.128 1.246.418 1.561.547.316 1.246.129 1.562-.418l4.643-8.042c.276-.478.887-.642 1.366-.366.478.276.642.888.366 1.366l-4.643 8.042c-.868 1.503-2.79 2.018-4.294 1.15-1.503-.868-2.018-2.79-1.15-4.293l4.642-8.04Zm-3.773-.036c.478.276.642.888.366 1.366l-3.214 5.567c-1.5 2.597-.61 5.917 1.987 7.416 2.596 1.499 5.916.61 7.415-1.987l1.786-3.093c.276-.478.888-.642 1.366-.366.478.276.642.888.366 1.366l-1.786 3.093c-2.051 3.553-6.594 4.77-10.147 2.719-3.553-2.052-4.77-6.595-2.72-10.148l3.215-5.567c.276-.478.888-.642 1.366-.366Z" clip-rule="evenodd"/></g><defs><clipPath id="a"><path d="M0 0h24v24h-24z"/></clipPath></defs></svg>