<svg xmlns="http://www.w3.org/2000/svg" viewBox="0 0 24 24"><path stroke="#A8A8A8" stroke-linecap="round" stroke-linejoin="round" stroke-width="1.1" d="M6.794 4.963s-1.448-.305-1.975-.988c-.486-.63-.494-1.975-.494-1.975m12.84 2.963s1.448-.305 1.975-.988c.486-.63.494-1.975.494-1.975"/><path fill-rule="evenodd" d="m12.414 20.33-.323.437.323-.436Zm-7.323-7.428c.545.658 1.167 1.326 1.821 1.979 1.353 1.35 2.81 2.604 3.93 3.523.561.458 1.036.832 1.37 1.09.168.13.3.23.39.298l.102.077.026.02.008.005c.24.179.292.519.113.76s-.519.292-.76.113l-.01-.007-.028-.021-.107-.08c-.092-.07-.228-.173-.398-.305-.302-.233-.714-.557-1.198-.95v2.003c0 .3-.244.544-.544.544-.3 0-.543-.244-.543-.544v-2.864c0-.014 0-.027.002-.04-.968-.821-2.073-1.807-3.12-2.854-1.38-1.377-2.694-2.892-3.455-4.293-.38-.7-.645-1.412-.685-2.09-.04-.698.16-1.358.69-1.888 3.384-3.384 6.676-3.895 9.583-3.87 2.929.026 6.763 1.154 9.64 4.03.636.637.674 1.494.446 2.32-.227.82-.738 1.718-1.377 2.615-1.285 1.803-3.2 3.753-4.845 5.297l-.019.018-.02.015-.003.002-.007.006-.03.024c-.027.02-.065.051-.111.088-.093.075-.215.176-.335.282-.123.108-.234.213-.31.297l-.02.022-.024 1.49-.024 1.452c-.006.3-.253.54-.553.534-.3-.005-.539-.253-.534-.553l.025-1.45c.012-.744.024-1.504.024-1.61 0-.198.099-.351.133-.404.05-.077.112-.15.17-.213.116-.128.261-.263.395-.38.136-.12.27-.231.37-.312l.121-.097.027-.02c1.324-1.243 2.788-2.72 3.943-4.146l-1.344-.608c-.153.106-.364.24-.621.371-.54.278-1.318.565-2.194.53-.788-.032-1.495-.315-1.99-.575-.175-.092-.328-.183-.453-.263-.108.084-.24.177-.396.27-.473.282-1.169.569-2.043.569-.867 0-1.633-.283-2.17-.55-.27-.135-.49-.27-.643-.373l-.011-.008-2.404.724Zm-.716-.92 3.063-.922c.171-.052.357-.015.497.097l.006.005.033.024c.03.023.076.056.137.097.122.082.302.193.524.304.45.225 1.046.435 1.684.435.63 0 1.135-.206 1.486-.415.175-.105.31-.21.398-.285.043-.038.075-.068.095-.087l.02-.02.002-.002c.194-.211.518-.235.741-.056v.001l.007.005.03.023c.028.021.072.053.13.092.114.079.282.185.488.293.419.22.963.429 1.529.452.62.024 1.205-.18 1.653-.41.221-.114.4-.23.523-.315l.137-.101.032-.026.006-.005c.16-.136.384-.167.576-.08l1.868.844c.02-.03.041-.058.062-.087.613-.86 1.038-1.637 1.214-2.275.175-.632.08-1.014-.167-1.262-2.64-2.64-6.186-3.688-8.88-3.71-2.717-.024-5.69.434-8.806 3.55-.281.282-.399.624-.373 1.057.026.454.212 1.004.554 1.634.201.37.448.754.731 1.146Zm10.869 6.596.002-.004c-.007.013-.01.015-.002.003Z" clip-rule="evenodd"/></svg>