<svg xmlns="http://www.w3.org/2000/svg" viewBox="0 0 24 24"><path fill-rule="evenodd" d="M5 3.493c0-1.107.902-1.993 2-1.993h10c1.098 0 2 .886 2 1.993v1.98c0 1.104-.895 2-2 2h-7c-.552 0-1-.449-1-1 0-.553.448-1 1-1h7v-1.973h-10v16.999l.003-.001 3.89-2.576c.67-.444 1.543-.444 2.214 0l3.89 2.576.003.001v-10.055c0-.552.448-1 1-1s1 .448 1 1v10.061c0 1.603-1.788 2.533-3.107 1.66l-3.89-2.575h-.006l-3.89 2.575c-1.319.873-3.107-.057-3.107-1.66v-17.012Zm1.998.007v-.002l.002-.003v-.002" clip-rule="evenodd"/></svg>