<svg xmlns="http://www.w3.org/2000/svg" viewBox="0 0 24 24"><path fill-rule="evenodd" d="M10.05 1.05c0-.304-.246-.55-.55-.55-.303 0-.55.246-.55.55v.321c0 2.776 2.25 5.026 5.027 5.026h1.958c1.087 0 1.968.882 1.968 1.97 0 1.086-.88 1.967-1.966 1.968h-4.646c-.304 0-.55.246-.55.55 0 .303.246.55.55.55h4.927c.93 0 1.685.754 1.685 1.685 0 .93-.754 1.685-1.685 1.685h-4.927c-.304 0-.55.246-.55.55 0 .304.246.55.55.55h.92c3.145.008 5.692 2.561 5.692 5.709 0 .303.247.55.55.55.304 0 .55-.247.55-.55 0-2.391-1.232-4.494-3.096-5.709h.311c1.538 0 2.785-1.247 2.785-2.785 0-.958-.483-1.803-1.22-2.304.741-.56 1.22-1.45 1.22-2.45 0-1.695-1.374-3.069-3.068-3.069h-1.958c-2.169 0-3.927-1.757-3.927-3.926v-.321Zm4.272 21.905c0 .304.246.55.55.55.304 0 .55-.246.55-.55v-.321c0-2.776-2.25-5.027-5.026-5.027h-1.958c-1.087 0-1.969-.881-1.969-1.968 0-1.085.878-1.965 1.961-1.969h4.376c.304 0 .55-.246.55-.55 0-.304-.246-.55-.55-.55h-5.021c-.93 0-1.685-.755-1.685-1.685s.754-1.685 1.685-1.685h4.949c.068-.004.133-.018.192-.044.198-.083.336-.279.336-.506 0-.304-.246-.55-.55-.55h-.534c-3.153 0-5.709-2.556-5.709-5.709 0-.304-.246-.55-.55-.55-.303 0-.55.246-.55.55 0 2.391 1.233 4.494 3.097 5.709h-.68c-1.539 0-2.786 1.247-2.786 2.785 0 1.046.577 1.957 1.43 2.433-.65.563-1.06 1.394-1.06 2.32 0 1.695 1.373 3.07 3.068 3.07h1.958c2.168 0 3.926 1.757 3.926 3.926v.32Z" clip-rule="evenodd"/></svg>