<svg xmlns="http://www.w3.org/2000/svg" viewBox="0 0 24 24"><path fill-rule="evenodd" d="M1 4c0-1.657 1.343-3 3-3h16c1.657 0 3 1.343 3 3v11.535c0 .552-.448 1-1 1s-1-.448-1-1v-7.535h-18v12c0 .552.448 1 1 1h15c.552 0 1 .448 1 1s-.448 1-1 1h-15c-1.657 0-3-1.343-3-3v-16Zm2 2h18v-2c0-.552-.448-1-1-1h-16c-.552 0-1 .448-1 1v2Z" clip-rule="evenodd"/><path fill-rule="evenodd" d="M22 18c.552 0 1 .448 1 1v1c0 1.657-1.343 3-3 3h-1c-.552 0-1-.448-1-1s.448-1 1-1h1c.552 0 1-.448 1-1v-1c0-.552.448-1 1-1Z" clip-rule="evenodd"/></svg>