<svg xmlns="http://www.w3.org/2000/svg" viewBox="0 0 24 24"><path fill-rule="evenodd" d="M1 8c0-1.657 1.343-3 3-3h16c1.657 0 3 1.343 3 3v12c0 1.657-1.343 3-3 3h-16c-1.657 0-3-1.343-3-3v-12Zm3-1c-.552 0-1 .448-1 1v12c0 .552.448 1 1 1h16c.552 0 1-.448 1-1v-12c0-.552-.448-1-1-1h-16Z" clip-rule="evenodd"/><path fill-rule="evenodd" d="M16.49 10.293c.39.39.39 1.024 0 1.414l-5.657 5.657c-.39.39-1.024.39-1.414 0l-.003-.003-.002-.002-2.121-2.12c-.39-.391-.39-1.025 0-1.415.39-.39 1.024-.39 1.414 0l1.419 1.419 4.95-4.95c.39-.39 1.023-.39 1.414 0Z" clip-rule="evenodd"/><path fill-rule="evenodd" d="M6 4c-.552 0-1-.448-1-1v-2c0-.552.448-1 1-1s1 .448 1 1v2c0 .552-.448 1-1 1Z" clip-rule="evenodd"/><path fill-rule="evenodd" d="M18 4c-.552 0-1-.448-1-1v-2c0-.552.448-1 1-1s1 .448 1 1v2c0 .552-.448 1-1 1Z" clip-rule="evenodd"/></svg>