<svg xmlns="http://www.w3.org/2000/svg" viewBox="0 0 24 24"><path fill-rule="evenodd" d="M4 8c-.552 0-1 .448-1 1v10c0 .552.448 1 1 1h16c.552 0 1-.448 1-1v-5.5c0-.552.448-1 1-1s1 .448 1 1v5.5c0 1.657-1.343 3-3 3h-16c-1.657 0-3-1.343-3-3v-10c0-1.657 1.343-3 3-3h9.5c.552 0 1 .448 1 1s-.448 1-1 1h-9.5Z" clip-rule="evenodd"/><path d="M18 3c0-1.105.895-2 2-2s2 .895 2 2-.895 2-2 2-2-.895-2-2Z"/><path fill-rule="evenodd" d="M22 15c.552 0 1-.448 1-1v-5c0-1.657-1.343-3-3-3h-3c-.552 0-1 .448-1 1s.448 1 1 1h3c.552 0 1 .448 1 1v5c0 .552.448 1 1 1Z" clip-rule="evenodd"/><path fill-rule="evenodd" d="M12 11c-1.657 0-3 1.343-3 3s1.343 3 3 3 3-1.343 3-3-1.343-3-3-3Zm-5 3c0-2.761 2.239-5 5-5s5 2.239 5 5-2.239 5-5 5-5-2.239-5-5Z" clip-rule="evenodd"/></svg>