<svg xmlns="http://www.w3.org/2000/svg" viewBox="0 0 24 24"><path fill-rule="evenodd" d="M1 7c0-1.657 1.343-3 3-3h16c1.657 0 3 1.343 3 3v2.5c0 .552-.448 1-1 1s-1-.448-1-1v-2.5c0-.552-.448-1-1-1h-16c-.552 0-1 .448-1 1v10c0 .552.448 1 1 1h6c.552 0 1 .448 1 1s-.448 1-1 1h-6c-1.657 0-3-1.343-3-3v-10Z" clip-rule="evenodd"/><path fill-rule="evenodd" d="M2 9c0-.552.448-1 1-1h18c.552 0 1 .448 1 1s-.448 1-1 1h-18c-.552 0-1-.448-1-1Z" clip-rule="evenodd"/><mask id="a" width="11" height="11" x="12" y="11" maskUnits="userSpaceOnUse"><path d="M12 11h11v11h-11z"/><path d="m20.897 14.096-.993-.993c-.137-.137-.36-.137-.497 0l-.496.497-3.643 3.642c-.053.053-.088.123-.099.198l-.165 1.16c-.034.23.165.43.397.396l1.159-.165c.075-.01.145-.046.198-.1l3.643-3.642.496-.496c.137-.137.137-.36 0-.497Z"/></mask><path d="m19.904 13.103-1.414 1.414 1.414-1.414Zm.993.993-1.414 1.414 1.414-1.414Zm0 .497-1.414-1.414 1.414 1.414Zm-.496.496 1.414 1.415-1.415-1.415Zm-3.643 3.643-1.414-1.415 1.414 1.415Zm-1.49-1.49 1.415 1.414-1.415-1.414Zm3.643-3.643-1.415-1.414 1.415 1.415Zm.496-.496 1.414 1.414-1.414-1.414Zm-2.847 5.728-.283-1.98.283 1.98Zm-1.16.165.284 1.98-.283-1.98Zm-.396-.397-1.98-.283 1.98.283Zm.165-1.159-1.98-.283 1.98.283Zm3.32-2.923.994.993 2.828-2.828-.993-.993-2.828 2.828Zm.994-1.338-.497.496 2.829 2.829.496-.497-2.828-2.828Zm-.497.496-3.642 3.642 2.829 2.829 3.642-3.642-2.829-2.829Zm-2.303 4.98 3.642-3.641-2.829-2.829-3.642 3.642 2.829 2.829Zm3.642-3.641.496-.497-2.828-2.828-.497.496 2.829 2.829Zm-4.048 1.837-1.159.166.566 3.96 1.159-.166-.566-3.96Zm.706 2.03.166-1.158-3.96-.566-.165 1.16 3.96.565Zm-1.865-1.864c1.088-.156 2.021.777 1.865 1.865l-3.96-.566c-.22 1.552 1.11 2.882 2.66 2.66l-.565-3.96Zm-1.264-1.19c-.36.36-.593.827-.665 1.33l3.96.566c-.05.353-.214.68-.466.933l-2.829-2.829Zm1.49 1.49c.253-.252.58-.416.933-.466l.566 3.96c.503-.072.97-.306 1.33-.665l-2.829-2.829Zm4.139-1.807c-.644-.643-.644-1.688 0-2.331l2.828 2.828c.919-.918.919-2.407 0-3.325l-2.828 2.828Zm1.835-3.821c-.918-.918-2.407-.918-3.325 0l2.828 2.828c-.644.644-1.688.644-2.331 0l2.828-2.828Z" mask="url(#a)"/><path fill-rule="evenodd" d="M5 15c0-.552.448-1 1-1h4c.552 0 1 .448 1 1s-.448 1-1 1h-4c-.552 0-1-.448-1-1Z" clip-rule="evenodd"/></svg>