<svg xmlns="http://www.w3.org/2000/svg" viewBox="0 0 24 24"><path fill-rule="evenodd" d="M0 22c0-.552.448-1 1-1h22c.552 0 1 .448 1 1s-.448 1-1 1h-22c-.552 0-1-.448-1-1Z" clip-rule="evenodd"/><path fill-rule="evenodd" d="M14 2c0-.552.448-1 1-1h6c.552 0 1 .448 1 1v20c0 .552-.448 1-1 1h-6c-.552 0-1-.448-1-1v-20Zm2 1v18h4v-18h-4Z" clip-rule="evenodd"/><path fill-rule="evenodd" d="M8 8c0-.552.448-1 1-1h6c.552 0 1 .448 1 1v14c0 .552-.448 1-1 1h-6c-.552 0-1-.448-1-1v-14Zm2 1v12h4v-12h-4Z" clip-rule="evenodd"/><path fill-rule="evenodd" d="M2 14c0-.552.448-1 1-1h6c.552 0 1 .448 1 1v8c0 .552-.448 1-1 1s-1-.448-1-1v-7h-4v3c0 .552-.448 1-1 1s-1-.448-1-1v-4Z" clip-rule="evenodd"/></svg>