<svg xmlns="http://www.w3.org/2000/svg" viewBox="0 0 24 24"><g clip-path="url(#a)"><path fill-rule="evenodd" d="M14.306 2.846c-4.887-1.31-9.91 1.59-11.22 6.478-1.31 4.887 1.59 9.911 6.478 11.22.498.134.997.224 1.493.272.55.054.952.543.898 1.093-.054.55-.543.951-1.092.898-.605-.06-1.212-.168-1.817-.33-5.954-1.596-9.487-7.716-7.892-13.67 1.596-5.955 7.716-9.488 13.67-7.893 5.954 1.596 9.488 7.716 7.893 13.67-.459 1.71-1.292 3.224-2.388 4.472l1.79 3.102c.203.35.175.788-.072 1.109-.246.32-.661.462-1.052.357l-5.607-1.502c-.534-.143-.85-.692-.707-1.225.143-.534.69-.85 1.224-.707l3.276.877-.956-1.655c-.227-.393-.16-.89.163-1.21 1.115-1.104 1.96-2.508 2.397-4.136 1.31-4.887-1.591-9.91-6.479-11.22Z" clip-rule="evenodd"/></g><defs><clipPath id="a"><path d="M0 0h24v24h-24z"/></clipPath></defs></svg>