<svg xmlns="http://www.w3.org/2000/svg" viewBox="0 0 24 24"><g fill-rule="evenodd" clip-path="url(#a)" clip-rule="evenodd"><path d="M12 2c-5.523 0-10 4.477-10 10s4.477 10 10 10 10-4.477 10-10-4.477-10-10-10Zm-12 10c0-6.627 5.372-12 12-12 6.627 0 12 5.373 12 12 0 6.628-5.373 12-12 12-6.628 0-12-5.372-12-12Z"/><path d="M11.171 14.4c-.39-.39-.39-1.024 0-1.415l5.657-5.656c.39-.39 1.024-.39 1.414 0 .39.39.39 1.023 0 1.414l-5.657 5.657c-.39.39-1.023.39-1.414 0Z"/><path d="M4.807 12.278c.39-.39 1.024-.39 1.414 0l3.536 3.536c.39.39.39 1.024 0 1.414-.39.39-1.024.39-1.414 0l-3.536-3.535c-.39-.39-.39-1.024 0-1.415Z"/></g><defs><clipPath id="a"><path d="M0 0h24v24h-24z"/></clipPath></defs></svg>