<svg xmlns="http://www.w3.org/2000/svg" viewBox="0 0 24 24"><g fill-rule="evenodd" clip-path="url(#a)" clip-rule="evenodd"><path d="M0 3c0-1.656 1.343-3 3-3h18c1.657 0 3 1.344 3 3v18c0 1.657-1.343 3-3 3h-18c-1.657 0-3-1.343-3-3v-18Zm3-1c-.553 0-1 .448-1 1v18c0 .553.447 1 1 1h18c.552 0 1-.447 1-1v-18c0-.552-.448-1-1-1h-18Z"/><path d="M11.171 14.4c-.39-.39-.39-1.024 0-1.414l5.657-5.657c.39-.39 1.024-.39 1.414 0 .39.39.39 1.023 0 1.414l-5.657 5.657c-.39.39-1.023.39-1.414 0Z"/><path d="M4.807 12.278c.39-.39 1.024-.39 1.414 0l3.536 3.536c.39.39.39 1.024 0 1.414-.39.39-1.024.39-1.414 0l-3.536-3.535c-.39-.39-.39-1.024 0-1.415Z"/></g><defs><clipPath id="a"><path d="M0 0h24v24h-24z"/></clipPath></defs></svg>