<svg xmlns="http://www.w3.org/2000/svg" viewBox="0 0 24 24"><g fill-rule="evenodd" clip-path="url(#a)" clip-rule="evenodd"><path d="M11.464 15.02c-.39-.39-.39-1.023 0-1.413l7.071-7.072c.39-.39 1.024-.39 1.415 0 .39.391.39 1.024 0 1.415l-7.071 7.07c-.391.391-1.024.391-1.415 0Z"/><path d="M4.393 12.192c.39-.39 1.024-.39 1.414 0l4.243 4.243c.39.39.39 1.024 0 1.414-.39.39-1.024.39-1.414 0l-4.243-4.242c-.39-.391-.39-1.024 0-1.415Z"/></g><defs><clipPath id="a"><path d="M0 0h24v24h-24z"/></clipPath></defs></svg>