<svg xmlns="http://www.w3.org/2000/svg" viewBox="0 0 24 24"><path fill-rule="evenodd" d="M22.493 5.13c.313.177.507.51.507.87v12c0 .36-.194.693-.507.87-.314.178-.699.173-1.008-.012l-5-3c-.473-.285-.627-.899-.343-1.373.285-.473.899-.627 1.373-.342l3.485 2.09v-8.467l-3.485 2.091c-.474.285-1.088.131-1.373-.342-.284-.474-.13-1.088.343-1.372l5-3c.31-.186.694-.19 1.008-.013Z" clip-rule="evenodd"/><path fill-rule="evenodd" d="M8 6c0-.552.448-1 1-1h7c1.105 0 2 .895 2 2v10c0 1.105-.895 2-2 2h-13c-1.105 0-2-.895-2-2v-10c0-.552.448-1 1-1s1 .448 1 1v10h13v-10h-7c-.552 0-1-.448-1-1Z" clip-rule="evenodd"/><path fill-rule="evenodd" d="M1 7c0-1.105.895-2 2-2h3c.552 0 1 .448 1 1s-.448 1-1 1h-3v1c0 .552-.448 1-1 1s-1-.448-1-1v-1Z" clip-rule="evenodd"/></svg>