<svg xmlns="http://www.w3.org/2000/svg" viewBox="0 0 24 24"><path fill-rule="evenodd" d="M5.266 9.554c.839-3.063 3.56-5.054 6.734-5.054.807 0 1.588.129 2.318.373.84.282 1.61.718 2.275 1.284.42.36.469.99.11 1.41-.358.42-.99.47-1.41.111-.465-.398-1.01-.707-1.611-.908-.522-.175-1.088-.27-1.682-.27-2.473 0-4.495 1.632-4.918 4.088-.088.514-.535.912-1.082.912-1.654 0-3 1.346-3 3s1.346 3 3 3h12c1.654 0 3-1.346 3-3s-1.346-3-3-3h-.083c-.552 0-1-.448-1-1s.448-1 1-1h.083c2.758 0 5 2.242 5 5s-2.242 5-5 5h-12c-2.758 0-5-2.242-5-5 0-2.509 1.854-4.59 4.266-4.946Z" clip-rule="evenodd"/></svg>