<svg xmlns="http://www.w3.org/2000/svg" viewBox="0 0 24 24"><path fill-rule="evenodd" d="M4.676 7.932c.899-3.302 3.874-5.432 7.324-5.432 3.45 0 6.425 2.13 7.324 5.432 2.623.348 4.676 2.557 4.676 5.26 0 2.948-2.441 5.308-5.4 5.308h-.6c-.552 0-1-.448-1-1s.448-1 1-1h.6c1.894 0 3.4-1.504 3.4-3.308 0-1.803-1.506-3.307-3.4-3.307-.55 0-1-.4-1.091-.917-.471-2.67-2.726-4.468-5.509-4.468-2.784 0-5.038 1.799-5.509 4.468-.09.517-.54.917-1.091.917-1.894 0-3.4 1.504-3.4 3.307 0 1.804 1.506 3.308 3.4 3.308h.6c.552 0 1 .448 1 1s-.448 1-1 1h-.6c-2.959 0-5.4-2.36-5.4-5.308 0-2.703 2.053-4.912 4.676-5.26Zm7.284 5.568c.553 0 1 .448 1 1v3.445l.306-.33c.374-.406 1.007-.431 1.413-.056.405.374.43 1.007.055 1.413l-2.04 2.207c-.189.205-.455.321-.734.321-.279 0-.545-.116-.734-.321l-1.96-2.122c-.375-.405-.35-1.038.055-1.413.406-.375 1.039-.35 1.413.056l.226.245v-3.445c0-.552.448-1 1-1Z" clip-rule="evenodd"/></svg>