<svg xmlns="http://www.w3.org/2000/svg" viewBox="0 0 24 24"><g clip-path="url(#a)"><path d="M0 0h24v24h-24z"/><path fill-rule="evenodd" d="M2.5 4c-.276 0-.5.224-.5.5v15c0 .276.224.5.5.5h4.786c.552 0 1 .448 1 1s-.448 1-1 1h-4.786c-1.38 0-2.5-1.12-2.5-2.5v-15c0-1.38 1.12-2.5 2.5-2.5h4.786c.552 0 1 .448 1 1s-.448 1-1 1h-4.786Zm13.214-1c0-.552.448-1 1-1h4.786c1.38 0 2.5 1.12 2.5 2.5v15c0 1.38-1.12 2.5-2.5 2.5h-4.786c-.552 0-1-.448-1-1s.448-1 1-1h4.786c.276 0 .5-.224.5-.5v-15c0-.276-.224-.5-.5-.5h-4.786c-.552 0-1-.448-1-1Z" clip-rule="evenodd"/><path fill-rule="evenodd" d="M12 0c.552 0 1 .448 1 1v22c0 .552-.448 1-1 1s-1-.448-1-1v-22c0-.552.448-1 1-1Z" clip-rule="evenodd"/></g><defs><clipPath id="a"><path d="M0 0h24v24h-24z"/></clipPath></defs></svg>