<svg xmlns="http://www.w3.org/2000/svg" viewBox="0 0 24 24"><g fill-rule="evenodd" clip-path="url(#a)" clip-rule="evenodd"><path d="M6 6c.39-.39 1.024-.39 1.414 0l4.243 4.243 4.242-4.243c.391-.39 1.024-.39 1.415 0 .39.39.39 1.024 0 1.414l-9.9 9.9c-.39.39-1.023.39-1.414 0-.39-.39-.39-1.024 0-1.415l4.243-4.242-4.243-4.243c-.39-.39-.39-1.023 0-1.414Zm7.793 7.793c.39-.39 1.024-.39 1.414 0l2.107 2.107c.39.39.39 1.023 0 1.414-.39.39-1.024.39-1.415 0l-2.106-2.107c-.39-.39-.39-1.024 0-1.414Z"/><path d="M12 2c-5.523 0-10 4.477-10 10s4.477 10 10 10 10-4.477 10-10-4.477-10-10-10Zm-12 10c0-6.627 5.373-12 12-12s12 5.373 12 12-5.373 12-12 12-12-5.373-12-12Z"/></g><defs><clipPath id="a"><path d="M0 0h24v24h-24z"/></clipPath></defs></svg>