<svg xmlns="http://www.w3.org/2000/svg" viewBox="0 0 24 24"><g fill-rule="evenodd" clip-path="url(#a)" clip-rule="evenodd"><path d="M0 3c0-1.657 1.343-3 3-3h18c1.657 0 3 1.343 3 3v18c0 1.657-1.343 3-3 3h-18c-1.657 0-3-1.343-3-3v-18Zm3-1c-.552 0-1 .448-1 1v18c0 .552.448 1 1 1h18c.552 0 1-.448 1-1v-18c0-.552-.448-1-1-1h-18Z"/><path d="M6 6c.39-.39 1.024-.39 1.414 0l4.243 4.243 4.242-4.243c.391-.39 1.024-.39 1.415 0 .39.39.39 1.024 0 1.414l-9.9 9.9c-.39.39-1.023.39-1.414 0-.39-.39-.39-1.024 0-1.415l4.243-4.242-4.243-4.243c-.39-.39-.39-1.023 0-1.414Zm7.793 7.793c.39-.39 1.024-.39 1.414 0l2.107 2.107c.39.39.39 1.023 0 1.414-.39.39-1.024.39-1.415 0l-2.106-2.107c-.39-.39-.39-1.024 0-1.414Z"/></g><defs><clipPath id="a"><path d="M0 0h24v24h-24z"/></clipPath></defs></svg>