<svg xmlns="http://www.w3.org/2000/svg" viewBox="0 0 24 24"><path fill-rule="evenodd" d="M3 16c.552 0 1 .448 1 1v2c0 .552.448 1 1 1h14c.552 0 1-.448 1-1v-2c0-.552.448-1 1-1s1 .448 1 1v2c0 1.657-1.343 3-3 3h-14c-1.657 0-3-1.343-3-3v-2c0-.552.448-1 1-1Z" clip-rule="evenodd"/><path fill-rule="evenodd" d="M7.293 12.05c.39-.39 1.024-.39 1.414 0l2.536 2.536v-11.586c0-.552.447-1 1-1 .552 0 1 .448 1 1v14c0 .404-.244.77-.618.924-.373.155-.803.07-1.09-.217l-4.242-4.243c-.39-.39-.39-1.023 0-1.414Zm7.243 2.657c-.391-.39-.391-1.024 0-1.414l1.414-1.414c.39-.39 1.024-.39 1.414 0 .39.39.39 1.023 0 1.414l-1.414 1.414c-.39.39-1.024.39-1.414 0Z" clip-rule="evenodd"/></svg>