<svg xmlns="http://www.w3.org/2000/svg" viewBox="0 0 24 24"><path fill-rule="evenodd" d="M7 4c0-1.657 1.343-3 3-3h10c1.657 0 3 1.343 3 3v10c0 1.657-1.343 3-3 3h-10c-1.657 0-3-1.343-3-3v-10Zm3-1c-.552 0-1 .448-1 1v10c0 .552.448 1 1 1h10c.552 0 1-.448 1-1v-10c0-.552-.448-1-1-1h-10Zm-6 6c-.552 0-1 .448-1 1v10c0 .552.448 1 1 1h10c.552 0 1-.448 1-1v-1c0-.552.448-1 1-1s1 .448 1 1v1c0 1.657-1.343 3-3 3h-10c-1.657 0-3-1.343-3-3v-10c0-1.657 1.343-3 3-3h.5c.552 0 1 .448 1 1s-.448 1-1 1h-.5Z" clip-rule="evenodd"/></svg>