<svg xmlns="http://www.w3.org/2000/svg" viewBox="0 0 24 24"><path fill-rule="evenodd" d="M15.243 2.586c.78-.781 2.047-.781 2.828 0l2.828 2.828c.782.781.782 2.048 0 2.829l-2.209 2.209c-.39.39-1.023.39-1.414 0l-3.535-3.536-8.87 8.87-.47 3.299 3.3-.472 6.747-6.747c.39-.39 1.023-.39 1.414 0 .39.39.39 1.024 0 1.414l-6.748 6.748c-.306.306-.703.504-1.131.565l-3.3.472c-1.32.188-2.451-.943-2.263-2.263l.472-3.3c.061-.428.26-.825.566-1.131l11.785-11.785Zm-.088 2.916 2.828 2.829 1.502-1.503-2.828-2.828-1.502 1.502Z" clip-rule="evenodd"/><path fill-rule="evenodd" d="M13 20.485c0-.552.448-1 1-1h6c.552 0 1 .448 1 1 0 .553-.448 1-1 1h-6c-.552 0-1-.447-1-1Z" clip-rule="evenodd"/></svg>