<svg xmlns="http://www.w3.org/2000/svg" viewBox="0 0 24 24"><path fill-rule="evenodd" d="M12.065 3.676c-1.9.99-3.823 2.833-5.261 5.324-1.439 2.491-2.073 5.078-1.98 7.218.092 2.154.9 3.706 2.176 4.442.949.548 2.145.646 3.489.254.53-.155 1.085.15 1.24.68.155.53-.15 1.085-.68 1.24-1.735.506-3.519.442-5.049-.442-2.073-1.196-3.064-3.527-3.175-6.088-.11-2.574.648-5.534 2.247-8.304 1.599-2.77 3.783-4.907 6.068-6.098 2.273-1.184 4.787-1.491 6.86-.294 1.63.941 2.597 2.595 2.984 4.496.386 1.898.212 4.103-.479 6.32-.164.526-.725.82-1.252.656-.527-.164-.822-.725-.657-1.252.613-1.965.734-3.823.428-5.325-.305-1.499-1.015-2.58-2.024-3.163-1.275-.736-3.024-.66-4.935.336Z" clip-rule="evenodd"/><path fill-rule="evenodd" d="M17.5 15c.552 0 1 .448 1 1v5c0 .552-.448 1-1 1s-1-.448-1-1v-5c0-.552.448-1 1-1Z" clip-rule="evenodd"/><path fill-rule="evenodd" d="M14 18.5c0-.552.448-1 1-1h5c.552 0 1 .448 1 1s-.448 1-1 1h-5c-.552 0-1-.448-1-1Z" clip-rule="evenodd"/></svg>