<svg xmlns="http://www.w3.org/2000/svg" viewBox="0 0 24 24"><g fill-rule="evenodd" clip-path="url(#a)" clip-rule="evenodd"><path d="M4.707 19.657c-.39-.39-.39-1.024 0-1.414l14.142-14.143c.39-.39 1.024-.39 1.414 0 .39.391.39 1.024 0 1.415l-14.142 14.142c-.39.39-1.023.39-1.414 0Z"/><path d="M4.5 20.5c-.552 0-1-.448-1-1v-5c0-.552.448-1 1-1s1 .448 1 1v5c0 .552-.448 1-1 1Z"/><path d="M3.5 19.5c0-.552.448-1 1-1h5c.552 0 1 .448 1 1s-.448 1-1 1h-5c-.552 0-1-.448-1-1Z"/><path d="M21.314 4.393c0-.552-.448-1-1-1h-5c-.553 0-1 .448-1 1 0 .553.447 1 1 1h5c.552 0 1-.447 1-1Z"/><path d="M20.314 3.393c-.553 0-1 .448-1 1v5c0 .553.447 1 1 1 .552 0 1-.447 1-1v-5c0-.552-.448-1-1-1Z"/></g><defs><clipPath id="a"><path d="M0 0h24v24h-24z"/></clipPath></defs></svg>