<svg xmlns="http://www.w3.org/2000/svg" viewBox="0 0 24 24"><path fill-rule="evenodd" d="M3.929 20.207c.39.39 1.024.39 1.414 0l4.632-4.632c.39-.39.39-1.023 0-1.414-.39-.39-1.024-.39-1.414 0l-4.632 4.632c-.39.39-.39 1.024 0 1.414Zm10.288-10.288c.391.39 1.024.39 1.415 0l5.268-5.268c.39-.39.39-1.024 0-1.414-.391-.39-1.024-.39-1.415 0l-5.268 5.267c-.39.391-.39 1.024 0 1.415Z" clip-rule="evenodd"/><path fill-rule="evenodd" d="M3.086 20.414c0 .553.447 1 1 1h5c.552 0 1-.447 1-1 0-.552-.448-1-1-1h-5c-.553 0-1 .448-1 1Z" clip-rule="evenodd"/><path fill-rule="evenodd" d="M4.086 21.414c.552 0 1-.447 1-1v-5c0-.552-.448-1-1-1-.553 0-1 .448-1 1v5c0 .553.447 1 1 1Z" clip-rule="evenodd"/><path fill-rule="evenodd" d="M20.607 2.186c.552 0 1 .448 1 1v5c0 .553-.448 1-1 1-.553 0-1-.447-1-1v-5c0-.552.447-1 1-1Z" clip-rule="evenodd"/><path fill-rule="evenodd" d="M21.607 3.186c0 .553-.448 1-1 1h-5c-.553 0-1-.447-1-1 0-.552.447-1 1-1h5c.552 0 1 .448 1 1Z" clip-rule="evenodd"/><path fill-rule="evenodd" d="M20.764 20.207c-.391.39-1.024.39-1.415 0l-4.632-4.632c-.39-.39-.39-1.023 0-1.414.391-.39 1.024-.39 1.415 0l4.631 4.632c.391.39.391 1.024 0 1.414Zm-10.29-10.288c-.39.39-1.023.39-1.413 0l-5.268-5.268c-.39-.39-.39-1.024 0-1.414.39-.39 1.024-.39 1.414 0l5.268 5.267c.39.39.39 1.024 0 1.415Z" clip-rule="evenodd"/><path fill-rule="evenodd" d="M21.607 20.414c0 .552-.448 1-1 1h-5c-.553 0-1-.448-1-1s.447-1 1-1h5c.552 0 1 .448 1 1Z" clip-rule="evenodd"/><path fill-rule="evenodd" d="M20.607 21.414c-.553 0-1-.448-1-1v-5c0-.552.447-1 1-1 .552 0 1 .448 1 1v5c0 .552-.448 1-1 1Z" clip-rule="evenodd"/><path fill-rule="evenodd" d="M4.086 2.186c-.553 0-1 .448-1 1v5c0 .553.447 1 1 1 .552 0 1-.447 1-1v-5c0-.552-.448-1-1-1Z" clip-rule="evenodd"/><path fill-rule="evenodd" d="M3.086 3.186c0 .553.447 1 1 1h5c.552 0 1-.447 1-1 0-.552-.448-1-1-1h-5c-.553 0-1 .448-1 1Z" clip-rule="evenodd"/></svg>