<svg xmlns="http://www.w3.org/2000/svg" viewBox="0 0 24 24"><path fill-rule="evenodd" d="M1 5c0-1.105.895-2 2-2h6.465c.668 0 1.293.334 1.664.89l1.406 2.11h8.465c1.105 0 2 .895 2 2v4c0 .552-.448 1-1 1s-1-.448-1-1v-4h-8.465c-.668 0-1.293-.334-1.664-.89l-1.406-2.11h-6.465v14h11c.552 0 1 .448 1 1s-.448 1-1 1h-11c-1.105 0-2-.895-2-2v-14Z" clip-rule="evenodd"/><path fill-rule="evenodd" d="M19.5 14c.552 0 1 .448 1 1v5c0 .552-.448 1-1 1s-1-.448-1-1v-5c0-.552.448-1 1-1Z" clip-rule="evenodd"/><path fill-rule="evenodd" d="M16 17.5c0-.552.448-1 1-1h5c.552 0 1 .448 1 1s-.448 1-1 1h-5c-.552 0-1-.448-1-1Z" clip-rule="evenodd"/></svg>