<svg xmlns="http://www.w3.org/2000/svg" viewBox="0 0 24 24"><g fill-rule="evenodd" clip-path="url(#a)" clip-rule="evenodd"><path d="M0 1c0-.552.448-1 1-1h5c.552 0 1 .448 1 1v22c0 .552-.448 1-1 1h-5c-.552 0-1-.448-1-1v-22Zm2 1v20h3v-20h-3Z"/><path d="M8.5 1c0-.552.448-1 1-1h5c.552 0 1 .448 1 1v13.5c0 .552-.448 1-1 1h-5c-.552 0-1-.448-1-1v-13.5Zm2 1v11.5h3v-11.5h-3Z"/><path d="M17 1c0-.552.448-1 1-1h5c.552 0 1 .448 1 1v5c0 .552-.448 1-1 1h-5c-.552 0-1-.448-1-1v-5Zm2 1v3h3v-3h-3Z"/><path d="M8.5 18c0-.552.448-1 1-1h5c.552 0 1 .448 1 1v5c0 .552-.448 1-1 1h-5c-.552 0-1-.448-1-1v-5Zm2 1v3h3v-3h-3Z"/><path d="M17 9.5c0-.552.448-1 1-1h5c.552 0 1 .448 1 1v13.5c0 .552-.448 1-1 1h-5c-.552 0-1-.448-1-1v-13.5Zm2 1v11.5h3v-11.5h-3Z"/></g><defs><clipPath id="a"><path d="M0 0h24v24h-24z"/></clipPath></defs></svg>