<svg xmlns="http://www.w3.org/2000/svg" viewBox="0 0 24 24"><path fill-rule="evenodd" d="M7.5 4c-2.472 0-4.5 2.029-4.5 4.508 0 1.127.453 2.371 1.242 3.665.784 1.284 1.854 2.541 2.977 3.673 1.993 2.009 4.073 3.546 4.797 4.05.434-.309 1.303-.95 2.34-1.823.423-.355 1.054-.3 1.41.122.355.423.3 1.054-.123 1.41-1.38 1.16-2.484 1.938-2.756 2.122l-.009.007-.007.004c-.032.022-.117.078-.212.126-.104.052-.302.136-.558.136h-.1c-.318 0-.662-.106-.935-.33-.602-.404-2.984-2.114-5.267-4.415-1.186-1.196-2.37-2.577-3.264-4.04-.888-1.455-1.535-3.068-1.535-4.707 0-3.58 2.921-6.508 6.5-6.508 1.722 0 3.316.663 4.505 1.819 1.184-1.14 2.771-1.819 4.495-1.819 3.58 0 6.5 2.927 6.5 6.508 0 1.519-.557 3.014-1.341 4.377-.788 1.37-1.843 2.673-2.931 3.827-.38.402-1.012.42-1.414.041-.402-.379-.42-1.011-.041-1.413 1.024-1.087 1.968-2.263 2.652-3.452.688-1.196 1.075-2.34 1.075-3.38 0-2.479-2.028-4.508-4.5-4.508-1.487 0-2.838.732-3.683 1.93-.188.266-.495.424-.82.423-.327-.001-.632-.162-.818-.43-.84-1.21-2.184-1.923-3.679-1.923Z" clip-rule="evenodd"/><path fill-rule="evenodd" d="M11 15v-6c0-.552.448-1 1-1s1 .448 1 1v6c0 .552-.448 1-1 1s-1-.448-1-1Z" clip-rule="evenodd"/><path fill-rule="evenodd" d="M8 12c0-.552.448-1 1-1h6c.552 0 1 .448 1 1s-.448 1-1 1h-6c-.552 0-1-.448-1-1Z" clip-rule="evenodd"/></svg>