<svg xmlns="http://www.w3.org/2000/svg" viewBox="0 0 24 24"><path fill-rule="evenodd" d="M10.85 4v-.45c0-.304-.246-.55-.55-.55-.304 0-.55.246-.55.55v.45h-.45c-.303 0-.55.247-.55.55 0 .305.247.55.55.55h.45v.9h-.617c-.214 0-.415.035-.598.105-.423-.91-1.105-1.509-1.909-1.827-.886-.35-1.885-.348-2.805-.111-1.79.46-3.571 1.918-3.571 3.894 0 1.002.243 1.848.594 2.46.175.305.384.565.616.755.226.184.516.335.84.335.525 0 1.017.265 1.31.652.286.376.365.834.143 1.277l-.017.034-.012.037c-.192.57-.2 1.188-.023 1.764.178.575.532 1.08 1.012 1.445l.01.007.01.007c.145.1.263.233.343.39.08.155.121.327.12.502-.011.47.025 1.027.23 1.485.106.238.267.47.51.64.239.17.522.255.835.26.534.05 1.071-.041 1.56-.263.495-.226.923-.58 1.238-1.024.175-.248.117-.591-.131-.767-.248-.175-.591-.116-.767.131-.202.286-.477.514-.796.659-.32.145-.67.202-1.02.167l-.027-.003h-.028c-.126 0-.191-.03-.23-.058-.043-.03-.093-.086-.14-.191-.103-.23-.145-.584-.135-1.014v-.004c.005-.356-.078-.709-.241-1.026-.162-.312-.397-.58-.686-.782-.292-.224-.507-.533-.616-.885-.106-.345-.105-.714.004-1.057.413-.861.223-1.748-.27-2.396-.49-.646-1.298-1.086-2.182-1.087h-.001c-.009-.002-.059-.015-.147-.087-.106-.087-.234-.234-.358-.45-.246-.43-.448-1.084-.448-1.913 0-1.264 1.203-2.431 2.746-2.83.747-.192 1.5-.177 2.125.07.563.223 1.05.645 1.352 1.347-.265.794-.41 1.7-.358 2.562-.33.283-.578.664-.78 1.102-.23.493-.42 1.098-.61 1.798-.25.89.145 1.68.773 2.268.623.583 1.534 1.033 2.54 1.326 2.002.582 4.608.601 6.551-.464l.003-.002c.672-.373 1.285-.77 1.68-1.255.43-.526.598-1.15.388-1.878-.2-.697-.393-1.302-.622-1.793-.204-.438-.451-.821-.791-1.106-.013-.672-.068-1.356-.252-1.908-.054-.164-.123-.325-.212-.477.301-.704.798-1.14 1.382-1.38.642-.263 1.418-.296 2.183-.123 1.584.358 2.802 1.488 2.802 2.743 0 .829-.202 1.483-.448 1.913-.124.216-.252.363-.358.45-.088.072-.138.085-.147.087h-.001c-.886.002-1.695.44-2.185 1.087-.491.648-.68 1.535-.267 2.395.108.345.109.715.001 1.06-.11.354-.328.665-.623.888-.286.202-.519.47-.678.78-.161.314-.243.662-.239 1.013 0 .438-.041.796-.144 1.029-.047.108-.096.163-.137.192-.036.026-.099.056-.224.056h-.028l-.028.003c-.349.036-.7-.022-1.02-.167-.317-.144-.591-.37-.793-.656-.35-.506-.814-.922-1.356-1.214-.542-.293-1.147-.452-1.763-.466-.304-.006-.555.234-.562.538-.007.304.234.555.538.562.442.01.876.124 1.265.334.39.21.723.51.974.873l.004.005c.314.446.742.8 1.239 1.026.488.222 1.026.312 1.56.262.313-.005.597-.091.835-.262.242-.174.4-.407.504-.645.2-.456.236-1.012.236-1.473v-.007c-.002-.174.038-.345.117-.5.08-.155.196-.287.338-.387l.008-.005.007-.006c.484-.362.84-.868 1.02-1.445.18-.577.174-1.197-.019-1.77l-.012-.037-.017-.034c-.223-.443-.144-.902.14-1.277.293-.386.785-.652 1.313-.652.324 0 .614-.15.84-.335.232-.19.441-.45.616-.755.35-.612.594-1.458.594-2.46 0-2-1.84-3.405-3.66-3.816-.936-.212-1.949-.188-2.842.178-.755.31-1.404.855-1.833 1.664-.17-.058-.353-.087-.548-.087h-.617v-.9h.45c.304 0 .55-.245.55-.55 0-.303-.246-.55-.55-.55h-.45v-.45c0-.304-.246-.55-.55-.55-.304 0-.55.246-.55.55v.45h-1.9Zm0 1.1v.9h1.9v-.9h-1.9Zm-3.231 5.324c-.062.1-.124.216-.187.351-.188.406-.36.938-.545 1.624l-.002.007c-.102.359.015.748.464 1.168.455.426 1.19.81 2.096 1.073 1.821.53 4.104.511 5.714-.37.663-.37 1.11-.68 1.361-.989.218-.267.286-.522.183-.88-.199-.692-.372-1.225-.562-1.632-.057-.123-.114-.23-.17-.323l-.034.033c-.2.19-.464.346-.69.48l-.02.011c-.485.288-1.013.601-1.467 1.206-.327.557-.821 1.007-1.415 1.302l-.01.004-.008.004c-.511.232-1.023.046-1.359-.153-.351-.208-.655-.51-.847-.774l-.01-.015-.01-.016c-.387-.618-.952-1.138-1.642-1.502-.189-.098-.462-.257-.697-.468-.046-.04-.095-.088-.143-.14Zm.93-2.778c-.154.46-.198 1.122-.199 1.898v.028-.005l.001.002c.005.012.028.072.146.178.135.122.317.23.468.309l.005.002c.847.447 1.557 1.092 2.052 1.876.116.156.307.342.506.46.21.123.311.11.34.1.415-.21.745-.52.955-.887l.015-.027.02-.026c.59-.802 1.289-1.215 1.78-1.506l.03-.017c.261-.155.415-.25.512-.343.07-.066.07-.092.07-.114v-.002c0-.788-.043-1.461-.198-1.926-.076-.226-.164-.36-.248-.434-.072-.064-.169-.112-.337-.112h-5.334c-.168 0-.265.048-.337.112-.084.075-.172.208-.248.434Zm4.909.627c.29.087.456.394.37.685-.078.259-.252.474-.482.608l-.019.01-.02.01c-.468.226-.984.343-1.507.343-.522 0-1.039-.117-1.508-.343l-.019-.01-.018-.01c-.23-.134-.405-.35-.482-.608-.087-.291.079-.598.37-.685.282-.084.58.07.676.345.306.139.641.21.981.21.34 0 .675-.071.981-.21.097-.275.394-.429.676-.345Z" clip-rule="evenodd"/></svg>