<svg xmlns="http://www.w3.org/2000/svg" viewBox="0 0 24 24"><path fill-rule="evenodd" d="M10.75 1.719c.731-.584 1.769-.584 2.5 0l9 7.2c.474.38.75.954.75 1.562v9.519c0 1.657-1.343 3-3 3h-.5c-.552 0-1-.448-1-1s.448-1 1-1h.5c.552 0 1-.448 1-1v-9.52l-9-7.2-9 7.2v9.52c0 .552.448 1 1 1h11c.552 0 1 .448 1 1s-.448 1-1 1h-11c-1.657 0-3-1.343-3-3v-9.52c0-.607.276-1.182.75-1.561l9-7.2Z" clip-rule="evenodd"/><path fill-rule="evenodd" d="M8 12c0-.552.448-1 1-1h6c.552 0 1 .448 1 1v10c0 .552-.448 1-1 1h-6c-.552 0-1-.448-1-1v-10Zm2 1v8h4v-8h-4Z" clip-rule="evenodd"/></svg>