<svg xmlns="http://www.w3.org/2000/svg" viewBox="0 0 24 24"><path fill-rule="evenodd" d="M4 3c-.552 0-1 .448-1 1v16c0 .552.448 1 1 1h16c.552 0 1-.448 1-1v-10c0-.552.448-1 1-1s1 .448 1 1v10c0 1.657-1.343 3-3 3h-16c-1.657 0-3-1.343-3-3v-16c0-1.657 1.343-3 3-3h10c.552 0 1 .448 1 1s-.448 1-1 1h-10Z" clip-rule="evenodd"/><path fill-rule="evenodd" d="M19.5 1c.552 0 1 .448 1 1v5c0 .552-.448 1-1 1s-1-.448-1-1v-5c0-.552.448-1 1-1Z" clip-rule="evenodd"/><path fill-rule="evenodd" d="M16 4.5c0-.552.448-1 1-1h5c.552 0 1 .448 1 1s-.448 1-1 1h-5c-.552 0-1-.448-1-1Z" clip-rule="evenodd"/><path fill-rule="evenodd" d="M16.293 12.293c.39-.39 1.024-.39 1.414 0l5 5c.39.39.39 1.024 0 1.414-.39.39-1.024.39-1.414 0l-4.293-4.293-5.293 5.293c-.39.39-1.024.39-1.414 0l-2.293-2.293-4.293 4.293c-.39.39-1.024.39-1.414 0-.39-.39-.39-1.024 0-1.414l5-5c.39-.39 1.024-.39 1.414 0l2.293 2.293 5.293-5.293Z" clip-rule="evenodd"/><path fill-rule="evenodd" d="M8 7c-.552 0-1 .448-1 1s.448 1 1 1 1-.448 1-1-.448-1-1-1Zm-3 1c0-1.657 1.343-3 3-3s3 1.343 3 3-1.343 3-3 3-3-1.343-3-3Z" clip-rule="evenodd"/></svg>