<svg xmlns="http://www.w3.org/2000/svg" viewBox="0 0 24 24"><g fill-rule="evenodd" clip-path="url(#a)" clip-rule="evenodd"><path d="M12 20c.552 0 1-.448 1-1v-8.63c0-.552-.448-1-1-1s-1 .448-1 1v8.63c0 .552.448 1 1 1Zm0-12.96c.552 0 1-.448 1-1v-.04c0-.552-.448-1-1-1s-1 .448-1 1v.04c0 .552.448 1 1 1Z"/><path d="M12 2c-5.523 0-10 4.477-10 10s4.477 10 10 10 10-4.477 10-10-4.477-10-10-10Zm-12 10c0-6.627 5.373-12 12-12s12 5.373 12 12-5.373 12-12 12-12-5.373-12-12Z"/></g><defs><clipPath id="a"><path d="M0 0h24v24h-24z"/></clipPath></defs></svg>