<svg xmlns="http://www.w3.org/2000/svg" viewBox="0 0 24 24"><path fill-rule="evenodd" d="M12 1c.552 0 1 .448 1 1v1.667c0 .552-.448 1-1 1s-1-.448-1-1v-1.667c0-.552.448-1 1-1Zm0 5c.552 0 1 .448 1 1v3.333c0 .553-.448 1-1 1s-1-.447-1-1v-3.333c0-.552.448-1 1-1Zm0 6.667c.552 0 1 .447 1 1v3.333c0 .552-.448 1-1 1s-1-.448-1-1v-3.333c0-.553.448-1 1-1Zm0 6.666c.552 0 1 .448 1 1v1.667c0 .552-.448 1-1 1s-1-.448-1-1v-1.667c0-.552.448-1 1-1Z" clip-rule="evenodd"/><path d="M1 17v-10l8 5-8 5Z"/><path fill-rule="evenodd" d="M.636 6.344c.239-.132.53-.125.761.02l8 5c.22.137.353.377.353.636 0 .258-.133.499-.352.636l-8 5c-.232.145-.523.152-.762.02-.238-.132-.386-.383-.386-.656v-10c0-.273.148-.524.386-.656Zm1.114 2.01v7.293l5.835-3.647-5.835-3.647Z" clip-rule="evenodd"/><path fill-rule="evenodd" d="M23.364 6.344c-.239-.132-.53-.125-.762.02l-8 5c-.219.137-.352.377-.352.636 0 .258.133.499.352.636l8 5c.232.145.523.152.762.02.238-.132.386-.383.386-.656v-10c0-.273-.148-.524-.386-.656Zm-1.114 2.01v7.293l-5.835-3.647 5.835-3.647Z" clip-rule="evenodd"/></svg>