<svg xmlns="http://www.w3.org/2000/svg" viewBox="0 0 24 24"><path fill-rule="evenodd" d="M8.823.88c.067-.297.361-.483.658-.416l-.121.536.12-.536h.003l.006.002.022.005c.02.004.047.01.083.02.073.017.178.042.312.076.268.068.65.168 1.113.301.925.266 2.174.663 3.469 1.186 1.29.522 2.645 1.176 3.77 1.963 1.113.779 2.068 1.734 2.451 2.882.355 1.062.52 2.616.582 4.3.063 1.698.02 3.583-.061 5.336-.083 1.755-.207 3.385-.31 4.576-.051.596-.097 1.082-.131 1.42l-.04.39-.01.103-.004.035-.547-.059-.547-.06.004-.033.01-.1.04-.384c.032-.334.078-.816.13-1.406.102-1.182.224-2.797.306-4.533.081-1.738.122-3.59.061-5.245-.061-1.671-.224-3.09-.526-3.991-.272-.816-.999-1.602-2.039-2.33-1.03-.72-2.3-1.338-3.551-1.844-1.249-.504-2.46-.89-3.361-1.148-.45-.13-.82-.227-1.078-.293l-.297-.073-.077-.018-.019-.004h-.004m10.948 21.462-.547-.06c-.033.302.185.574.487.607.302.033.574-.186.607-.488l-.547-.059Z" clip-rule="evenodd"/><path fill-rule="evenodd" d="m3.403 9.391.004.005.017.017.066.07c.058.06.144.149.253.258.219.217.527.516.889.838.735.655 1.642 1.366 2.433 1.722.783.353 1.85.536 2.895.62 1.033.084 1.992.066 2.53.044.621-.025 1.031.629.767 1.174-.214.44-.555 1.196-.818 2.033-.268.849-.436 1.72-.356 2.411.091.793.356 1.352.71 1.93.097.158.206.326.322.503.294.45.631.966.923 1.575.131.273.015.602-.258.733-.274.132-.603.016-.734-.258-.26-.54-.532-.957-.81-1.383-.126-.193-.254-.387-.382-.596-.401-.656-.748-1.371-.864-2.378-.106-.925.118-1.974.4-2.868.213-.675.47-1.297.68-1.763-.575.012-1.361.007-2.198-.06-1.082-.087-2.302-.283-3.26-.714-.951-.43-1.963-1.237-2.712-1.904-.38-.339-.704-.652-.934-.88-.114-.115-.206-.21-.269-.275l-.072-.076-.02-.02-.005-.006-.002-.002.402-.375-.402.375c-.207-.223-.195-.57.027-.778.223-.207.57-.194.778.028Z" clip-rule="evenodd"/><path stroke="#A8A8A8" stroke-linecap="round" stroke-linejoin="round" stroke-width="1.1" d="M14.688 6.271s.198 2.445 1.145 3.553c.809.944 2.75 1.604 2.75 1.604"/></svg>