<svg xmlns="http://www.w3.org/2000/svg" viewBox="0 0 24 24"><g clip-path="url(#a)"><path fill-rule="evenodd" d="M5.636 12.707c-1.562 1.562-1.562 4.095 0 5.657 1.562 1.562 4.095 1.562 5.657 0l2.121-2.121c.39-.39 1.024-.39 1.414 0 .39.39.39 1.023 0 1.414l-2.121 2.121c-2.343 2.343-6.142 2.343-8.485 0-2.343-2.343-2.343-6.142 0-8.485l2.121-2.121c.39-.391 1.024-.391 1.414 0 .39.39.39 1.023 0 1.414l-2.121 2.121Zm3.536-4.95c-.391-.39-.391-1.023 0-1.414l2.12-2.121c2.344-2.343 6.143-2.343 8.486 0 2.343 2.343 2.343 6.142 0 8.485l-2.121 2.121c-.39.39-1.024.39-1.414 0-.39-.39-.39-1.023 0-1.414l2.12-2.121c1.563-1.562 1.563-4.095 0-5.657-1.561-1.562-4.094-1.562-5.656 0l-2.121 2.121c-.39.39-1.024.39-1.414 0Zm-2.122 9.193c-.39-.39-.39-1.024 0-1.414l8.486-8.486c.39-.39 1.023-.39 1.414 0 .39.39.39 1.024 0 1.414l-8.486 8.486c-.39.39-1.023.39-1.414 0Z" clip-rule="evenodd"/></g><defs><clipPath id="a"><path d="M0 0h24v24h-24z"/></clipPath></defs></svg>