<svg xmlns="http://www.w3.org/2000/svg" viewBox="0 0 24 24"><path fill-rule="evenodd" d="M5.5 19c0-.552.448-1 1-1h15c.552 0 1 .448 1 1s-.448 1-1 1h-15c-.552 0-1-.448-1-1Z" clip-rule="evenodd"/><path fill-rule="evenodd" d="M5.5 12c0-.552.448-1 1-1h15c.552 0 1 .448 1 1s-.448 1-1 1h-15c-.552 0-1-.448-1-1Z" clip-rule="evenodd"/><path fill-rule="evenodd" d="M5.5 5c0-.552.448-1 1-1h15c.552 0 1 .448 1 1s-.448 1-1 1h-15c-.552 0-1-.448-1-1Z" clip-rule="evenodd"/><path d="M3.5 5c0 .552-.448 1-1 1s-1-.448-1-1 .448-1 1-1 1 .448 1 1Z"/><path d="M3.5 12c0 .552-.448 1-1 1s-1-.448-1-1 .448-1 1-1 1 .448 1 1Z"/><path d="M3.5 19c0 .552-.448 1-1 1s-1-.448-1-1 .448-1 1-1 1 .448 1 1Z"/></svg>