<svg xmlns="http://www.w3.org/2000/svg" viewBox="0 0 24 24"><path fill-rule="evenodd" d="M12 20c.35 0 .674-.183.855-.482l5.518-9.107.01-.016c.602-1.037.919-2.206.917-3.396l-1 .001h1v-.001c0-3.906-3.321-6.999-7.3-6.999-3.98 0-7.3 3.094-7.3 7 0 1.218.344 2.408.91 3.4l.014.023 5.521 9.096c.182.299.506.481.855.481Zm-4.659-10.603c-.4-.705-.641-1.551-.641-2.397 0-2.71 2.332-5 5.3-5s5.3 2.29 5.3 5v.001c.001.83-.219 1.65-.642 2.382l-4.659 7.689-4.658-7.675Z" clip-rule="evenodd"/><path fill-rule="evenodd" d="M5 18c-1.105 0-2 .895-2 2s.895 2 2 2h14c1.105 0 2-.895 2-2s-.895-2-2-2h-1c-.552 0-1-.448-1-1s.448-1 1-1h1c2.21 0 4 1.79 4 4s-1.79 4-4 4h-14c-2.21 0-4-1.79-4-4s1.79-4 4-4h5.5c.552 0 1 .448 1 1s-.448 1-1 1h-5.5Z" clip-rule="evenodd"/></svg>