<svg xmlns="http://www.w3.org/2000/svg" viewBox="0 0 24 24"><path fill-rule="evenodd" d="M12 3c-2.074 0-3.78 1.579-3.98 3.599-.055.55-.545.95-1.094.896-.55-.054-.951-.544-.896-1.094.3-3.033 2.858-5.401 5.97-5.401 3.112 0 5.67 2.368 5.97 5.401.055.55-.346 1.04-.896 1.094-.55.055-1.04-.347-1.094-.896-.2-2.02-1.907-3.599-3.98-3.599Z" clip-rule="evenodd"/><path fill-rule="evenodd" d="M4 12c0-1.657 1.343-3 3-3h10c1.657 0 3 1.343 3 3v8c0 1.657-1.343 3-3 3h-10c-1.657 0-3-1.343-3-3v-8Zm3-1c-.552 0-1 .448-1 1v8c0 .552.448 1 1 1h10c.552 0 1-.448 1-1v-8c0-.552-.448-1-1-1h-10Z" clip-rule="evenodd"/><path fill-rule="evenodd" d="M12 14c.552 0 1 .448 1 1v2c0 .552-.448 1-1 1s-1-.448-1-1v-2c0-.552.448-1 1-1Z" clip-rule="evenodd"/></svg>