<svg xmlns="http://www.w3.org/2000/svg" viewBox="0 0 24 24"><g fill-rule="evenodd" clip-path="url(#a)" clip-rule="evenodd"><path d="M0 6c0-1.657 1.343-3 3-3h18c1.657 0 3 1.343 3 3v12c0 1.657-1.343 3-3 3h-18c-1.657 0-3-1.343-3-3v-12Zm3-1c-.552 0-1 .448-1 1v12c0 .552.448 1 1 1h18c.552 0 1-.448 1-1v-12c0-.552-.448-1-1-1h-18Z"/><path d="M.122 6.521c.265-.485.872-.663 1.357-.399l10.521 5.739 5.021-2.739c.485-.264 1.092-.086 1.357.4.264.484.086 1.091-.4 1.356l-5.02 2.739c-.597.325-1.319.325-1.916 0l-10.52-5.74c-.486-.264-.664-.871-.4-1.356Z"/></g><defs><clipPath id="a"><path d="M0 0h24v24h-24z"/></clipPath></defs></svg>