<svg xmlns="http://www.w3.org/2000/svg" viewBox="0 0 24 24"><g fill-rule="evenodd" clip-path="url(#a)" clip-rule="evenodd"><path d="M12.479 2.4c-.299-.163-.66-.163-.958 0l-9 4.91c-.321.175-.521.511-.521.877v12.813c0 .552.448 1 1 1h18c.552 0 1-.448 1-1v-12.813c0-.366-.2-.702-.521-.878l-9-4.909Zm-1.916-1.755c.896-.489 1.978-.489 2.874 0l9 4.909c.963.525 1.563 1.535 1.563 2.633v12.813c0 1.657-1.343 3-3 3h-18c-1.657 0-3-1.343-3-3v-12.813c0-1.098.6-2.108 1.563-2.633l9-4.91Z"/><path d="M3.152 9.47c.293-.468.91-.61 1.378-.318l7.47 4.669 7.47-4.669c.468-.293 1.085-.15 1.378.318.293.468.15 1.085-.318 1.378l-7.47 4.669c-.649.405-1.472.405-2.12 0l-7.47-4.669c-.468-.293-.61-.91-.318-1.378Z"/></g><defs><clipPath id="a"><path d="M0 0h24v24h-24z"/></clipPath></defs></svg>