<svg xmlns="http://www.w3.org/2000/svg" viewBox="0 0 24 24"><g fill-rule="evenodd" clip-path="url(#a)" clip-rule="evenodd"><path d="M0 1.5c0-.828.672-1.5 1.5-1.5h5c.828 0 1.5.672 1.5 1.5v5c0 .828-.672 1.5-1.5 1.5h-5c-.828 0-1.5-.672-1.5-1.5v-5Zm2 .5v4h4v-4h-4Z"/><path d="M16 17.5c0-.828.672-1.5 1.5-1.5h5c.828 0 1.5.672 1.5 1.5v5c0 .828-.672 1.5-1.5 1.5h-5c-.828 0-1.5-.672-1.5-1.5v-5Zm2 .5v4h4v-4h-4Z"/><path d="M6.707 6.293c.39-.39 1.024-.39 1.414 0l1.238 1.237c.39.39.39 1.024 0 1.415-.39.39-1.024.39-1.414 0l-1.238-1.238c-.39-.39-.39-1.024 0-1.414Zm3.712 3.712c.39-.39 1.024-.39 1.415 0l2.475 2.475c.39.39.39 1.024 0 1.414-.391.39-1.024.39-1.415 0l-2.475-2.475c-.39-.39-.39-1.023 0-1.414Zm4.95 4.95c.39-.39 1.024-.39 1.414 0l1.238 1.237c.39.39.39 1.024 0 1.415-.39.39-1.024.39-1.414 0l-1.238-1.238c-.39-.39-.39-1.024 0-1.414Z"/></g><defs><clipPath id="a"><path d="M0 0h24v24h-24z"/></clipPath></defs></svg>