<svg xmlns="http://www.w3.org/2000/svg" viewBox="0 0 24 24"><g fill-rule="evenodd" clip-path="url(#a)" clip-rule="evenodd"><path d="M12.394 2.257c-.252-.108-.536-.108-.788 0l-9 3.857c-.368.157-.606.519-.606.919v9.934c0 .4.238.762.606.919l9 3.857c.252.108.536.108.788 0l9-3.857c.368-.157.606-.52.606-.92v-9.933c0-.4-.238-.762-.606-.92l-9-3.856Zm-1.576-1.839c.755-.323 1.61-.323 2.364 0l9 3.858c1.103.472 1.818 1.557 1.818 2.757v9.934c0 1.2-.715 2.285-1.818 2.757l-9 3.857c-.755.324-1.61.324-2.364 0l-9-3.857c-1.103-.472-1.818-1.557-1.818-2.757v-9.934c0-1.2.715-2.285 1.818-2.757l9-3.858Z"/><path d="M12.464 10.734c.33.173.536.514.536.886v4.38c0 .552-.447 1-1 1-.552 0-1-.448-1-1v-3.775l-4.464-2.34c-.49-.256-.678-.86-.422-1.35.257-.489.861-.677 1.35-.421l5 2.62Z"/><path d="M11.52 10.734c-.33.173-.536.514-.536.886v4.38c0 .552.447 1 1 1 .552 0 1-.448 1-1v-3.775l4.464-2.34c.49-.256.678-.86.422-1.35-.257-.489-.861-.678-1.35-.421l-5 2.62Z"/></g><defs><clipPath id="a"><path d="M0 0h24v24h-24z"/></clipPath></defs></svg>