<svg xmlns="http://www.w3.org/2000/svg" viewBox="0 0 24 24"><path fill-rule="evenodd" d="M6.62 2.543c0-.3-.243-.543-.543-.543-.3 0-.543.243-.543.543 0 1.504.514 2.889 1.376 3.988 0 .309.002.616.003.923.003.765.007 1.525-.003 2.288-.01.754-.12 1.654-.266 2.522l-5.844 2.922c-.268.134-.377.46-.243.728.135.269.46.377.729.243l5.105-2.552c-.111.534-.22 1.002-.303 1.343-.044.183-.081.33-.107.43l-.03.115-.007.03-.003.008c-.077.29.095.588.384.665.29.077.588-.094.665-.384l-.524-.14.524.139.003-.01.009-.033.03-.12c.028-.104.066-.256.112-.444.09-.377.213-.904.336-1.506.245-1.193.5-2.716.516-3.942.009-.71.007-1.424.004-2.133 1.1.868 2.49 1.386 4 1.386 1.53 0 2.936-.532 4.043-1.42-.003.72-.005 1.445.004 2.167.015 1.226.271 2.749.516 3.942.123.602.245 1.129.336 1.506l.11.444.032.12.008.032.003.011.525-.14-.524.14c.077.29.375.462.664.385.29-.078.462-.375.385-.665l-.003-.009-.008-.029-.03-.115-.107-.43c-.081-.336-.188-.795-.297-1.32l5.057 2.53c.268.133.595.024.729-.244s.025-.594-.243-.728l-5.797-2.899c-.148-.875-.26-1.784-.27-2.545-.01-.763-.007-1.523-.003-2.288l.003-.979c.836-1.09 1.333-2.453 1.333-3.932 0-.3-.243-.543-.543-.543-.3 0-.543.243-.543.543 0 2.122-1.23 3.958-3.015 4.833-.17-.216-.406-.378-.627-.489-.448-.224-1.028-.346-1.64-.346-.61 0-1.19.122-1.638.346-.244.122-.506.307-.679.558-.701-.318-1.322-.782-1.824-1.353-.042-.105-.116-.194-.21-.255-.706-.91-1.127-2.053-1.127-3.294Zm4.384 5.288c.323.06.656.092.996.092.388 0 .766-.041 1.13-.12-.262-.104-.62-.176-1.031-.176-.446 0-.829.084-1.095.204Zm-10.292 11.171c.069-.292.361-.473.653-.404l8.39 1.974c.292.069.473.361.404.653-.068.292-.36.473-.652.404l-8.39-1.974c-.293-.069-.474-.361-.405-.653Zm21.627-.404c.292-.069.584.112.653.404.069.292-.112.584-.404.653l-8.39 1.974c-.293.069-.585-.112-.654-.404-.068-.292.113-.584.405-.653l8.39-1.974Z" clip-rule="evenodd"/></svg>