<svg xmlns="http://www.w3.org/2000/svg" viewBox="0 0 24 24"><path d="M12 18c-2.76 0-5-2.24-5-5 0-1.62.79-3.14 2.11-4.08l1.16 1.63c-.79.56-1.27 1.48-1.27 2.45 0 1.65 1.35 3 3 3 .86 0 1.68-.37 2.25-1.02l1.5 1.32c-.95 1.08-2.32 1.69-3.75 1.69v.01Z"/><path d="M15.97 13.5c-.5 0-.93-.37-.99-.88-.17-1.36-1.24-2.43-2.6-2.6-.55-.07-.94-.57-.87-1.12.07-.55.57-.94 1.12-.87 2.27.28 4.05 2.07 4.34 4.34.07.55-.32 1.05-.87 1.12h-.12l-.01.01Z"/><path d="M20.63 21.72c-.26 0-.51-.1-.71-.29l-16.96-16.97c-.39-.39-.39-1.02 0-1.41.39-.39 1.02-.39 1.41 0l16.97 16.97c.39.39.39 1.02 0 1.41-.2.2-.45.29-.71.29Z"/><path d="M22 15.12c-.42 0-.82-.27-.95-.69-.08-.26-2.17-6.43-9.05-6.43-.32 0-.62.01-.92.04-.55.05-1.03-.36-1.08-.91-.05-.55.36-1.03.91-1.08.35-.03.71-.04 1.08-.04 8.36 0 10.93 7.74 10.95 7.82.17.53-.12 1.09-.65 1.26-.1.03-.2.05-.3.05l.01-.02Zm-20 0c-.1 0-.2-.01-.3-.05-.53-.17-.82-.73-.65-1.26.06-.19 1.57-4.77 6.19-6.84.5-.23 1.1 0 1.32.5.23.5 0 1.1-.5 1.32-3.81 1.71-5.09 5.59-5.1 5.63-.14.42-.53.7-.95.7h-.01Z"/><path d="M12 11.5c.83 0 1.5.67 1.5 1.5s-.67 1.5-1.5 1.5-1.5-.67-1.5-1.5.67-1.5 1.5-1.5Z"/></svg>