<svg xmlns="http://www.w3.org/2000/svg" viewBox="0 0 24 24"><path fill-rule="evenodd" d="M2.952 14.427c-.168.525-.73.815-1.256.647-.526-.168-.817-.73-.649-1.257l.953.304c-.953-.304-.952-.304-.952-.305v-.001l.001-.003.003-.007.007-.023.026-.076c.023-.063.055-.15.098-.26.087-.218.218-.522.399-.885.362-.722.93-1.686 1.764-2.653 1.68-1.949 4.438-3.908 8.654-3.908s6.975 1.96 8.654 3.908c.834.967 1.402 1.93 1.764 2.653.181.363.312.667.399.886.043.109.075.197.098.26l.026.075.008.023.002.007v.003l.001.001-.952.305.953-.304c.168.526-.122 1.089-.649 1.257-.525.168-1.087-.121-1.256-.646v-.002m-18.096 0v.002-.001Zm0 .002.002-.008.016-.043c.014-.042.038-.107.072-.193.068-.17.176-.422.329-.728.306-.612.789-1.429 1.49-2.242 1.39-1.613 3.63-3.214 7.139-3.214 3.509 0 5.75 1.601 7.14 3.214.7.813 1.183 1.63 1.49 2.242.152.306.26.557.328.729.034.085.058.15.072.192l.009.023.007.02.002.006m-18.096.002Z" clip-rule="evenodd"/><path fill-rule="evenodd" d="M12 10c-1.657 0-3 1.343-3 3s1.343 3 3 3 3-1.343 3-3-1.343-3-3-3Zm-5 3c0-2.761 2.239-5 5-5s5 2.239 5 5-2.239 5-5 5-5-2.239-5-5Z" clip-rule="evenodd"/><path d="M10.5 13c0-.828.672-1.5 1.5-1.5.829 0 1.5.672 1.5 1.5s-.671 1.5-1.5 1.5c-.828 0-1.5-.672-1.5-1.5Z"/></svg>