<svg xmlns="http://www.w3.org/2000/svg" viewBox="0 0 24 24"><path d="M18.2 22.99h-.3c-1.7-.11-3.24-.74-4.39-1.29-3.06-1.46-5.73-3.53-7.96-6.15-1.83-2.18-3.07-4.22-3.89-6.41-.53-1.4-.73-2.52-.64-3.62.07-.84.41-1.55 1.01-2.14l1.76-1.74c.94-.88 2.1-.84 2.94 0 .32.29.63.6.96.94l1.89 1.87c.47.46.71.97.71 1.5s-.24 1.04-.71 1.5l-1.03.98s-.03.05 0 .13c.31.74.78 1.5 1.51 2.41 1.35 1.65 2.77 2.92 4.34 3.9.18.11.37.2.55.29.21.1.41.2.58.31.02 0 .03.02.04.03.04 0 .09-.05.11-.07l1.01-1c.9-.89 2.14-.86 2.96.02l2.82 2.79c.57.55.69 1.41.34 2.4-.1.29-.28.57-.53.81-.71.69-1.23 1.22-1.38 1.39-.01.01-.02.02-.03.04-.72.76-1.59 1.12-2.67 1.12v-.01Zm-12.94-19.98s-.05.04-.09.08l-1.74 1.72c-.26.25-.39.53-.42.89-.06.78.09 1.63.52 2.75.74 1.97 1.87 3.82 3.55 5.82 2.04 2.4 4.49 4.29 7.29 5.63.98.46 2.3 1.01 3.66 1.1h.18c.52 0 .87-.14 1.2-.48.21-.24.71-.74 1.48-1.5.09-.21.12-.34.12-.41l-2.79-2.75-.06-.06c-.02.01-.04.03-.06.06l-1.01 1c-.69.67-1.6.82-2.44.41-.03-.01-.08-.05-.11-.06-.16-.09-.3-.17-.46-.24-.24-.12-.48-.24-.72-.39-1.75-1.09-3.33-2.51-4.83-4.33-.86-1.08-1.42-1.98-1.82-2.94 0-.02-.03-.09-.04-.11-.34-1.06.09-1.78.51-2.19l1.03-.98s.04-.05.06-.06c-.02-.02-.04-.05-.07-.08l-1.91-1.9c-.3-.31-.59-.6-.89-.88-.05-.05-.08-.08-.1-.09l-.04-.01Z"/></svg>