<svg xmlns="http://www.w3.org/2000/svg" viewBox="0 0 24 24"><g fill-rule="evenodd" clip-path="url(#a)" clip-rule="evenodd"><path d="M11 2.05c-5.053.501-9 4.765-9 9.95 0 3.397 1.693 6.4 4.286 8.208 1.62 1.13 3.588 1.792 5.714 1.792 5.185 0 9.449-3.947 9.95-9h-9.95c-.552 0-1-.448-1-1v-9.95Zm-11 9.95c0-6.627 5.373-12 12-12 .552 0 1 .448 1 1v10h10c.552 0 1 .448 1 1 0 6.627-5.373 12-12 12-2.548 0-4.914-.795-6.858-2.151-3.106-2.167-5.142-5.77-5.142-9.849Z"/><path d="M14 1c0-.552.448-1 1-1 4.97 0 9 4.03 9 9 0 .552-.448 1-1 1h-8c-.552 0-1-.448-1-1v-8Zm2 1.07v5.93h5.93c-.44-3.066-2.864-5.49-5.93-5.93Z"/></g><defs><clipPath id="a"><path d="M0 0h24v24h-24z"/></clipPath></defs></svg>