<svg xmlns="http://www.w3.org/2000/svg" viewBox="0 0 24 24"><path fill-rule="evenodd" d="M10.409 16h1.591c.552 0 1 .448 1 1s-.448 1-1 1h-1.552c-2.6.103-4.857.46-6.434.955-.796.25-1.363.518-1.708.765-.177.127-.255.217-.288.264.038.056.137.171.39.335.435.282 1.13.573 2.078.833 1.882.516 4.54.848 7.514.848 2.975 0 5.631-.332 7.514-.848.948-.26 1.643-.551 2.078-.833.252-.163.352-.279.39-.334-.037-.055-.133-.166-.374-.324-.42-.277-1.095-.565-2.02-.824-.532-.148-.843-.7-.694-1.232.149-.532.7-.842 1.233-.694 1.019.286 1.915.642 2.58 1.079.624.41 1.293 1.063 1.293 1.995 0 .943-.686 1.601-1.32 2.013-.68.44-1.595.798-2.637 1.083-2.1.576-4.942.919-8.043.919-3.1 0-5.944-.343-8.043-.919-1.042-.285-1.958-.644-2.636-1.083-.635-.412-1.321-1.07-1.321-2.013 0-.864.578-1.488 1.141-1.891.59-.422 1.381-.767 2.275-1.047 1.8-.565 4.252-.94 6.973-1.046l.02-.001Zm-8.414 4.025.001-.002v.002Z" clip-rule="evenodd"/><path fill-rule="evenodd" d="M12 2c-2.21 0-4 1.79-4 4s1.79 4 4 4 4-1.79 4-4-1.79-4-4-4Zm-6 4c0-3.314 2.686-6 6-6s6 2.686 6 6-2.686 6-6 6-6-2.686-6-6Z" clip-rule="evenodd"/><path fill-rule="evenodd" d="M12 11c.552 0 1 .448 1 1v8c0 .552-.448 1-1 1s-1-.448-1-1v-8c0-.552.448-1 1-1Z" clip-rule="evenodd"/></svg>