<svg xmlns="http://www.w3.org/2000/svg" viewBox="0 0 24 24"><g fill-rule="evenodd" clip-path="url(#a)" clip-rule="evenodd"><path d="M3.657 11.657c0-.552.448-1 1-1h6v-6c0-.552.448-1 1-1s1 .448 1 1v14c0 .552-.448 1-1 1s-1-.448-1-1v-6h-6c-.552 0-1-.448-1-1Zm11.343 0c0-.552.448-1 1-1h2.657c.552 0 1 .448 1 1s-.448 1-1 1h-2.657c-.552 0-1-.448-1-1Z"/><path d="M12 2c-5.523 0-10 4.477-10 10s4.477 10 10 10 10-4.477 10-10-4.477-10-10-10Zm-12 10c0-6.627 5.373-12 12-12s12 5.373 12 12-5.373 12-12 12-12-5.373-12-12Z"/></g><defs><clipPath id="a"><path d="M0 0h24v24h-24z"/></clipPath></defs></svg>