<svg xmlns="http://www.w3.org/2000/svg" viewBox="0 0 24 24"><g fill-rule="evenodd" clip-path="url(#a)" clip-rule="evenodd"><path d="M0 3c0-1.657 1.343-3 3-3h18c1.657 0 3 1.343 3 3v18c0 1.657-1.343 3-3 3h-18c-1.657 0-3-1.343-3-3v-18Zm3-1c-.552 0-1 .448-1 1v18c0 .552.448 1 1 1h18c.552 0 1-.448 1-1v-18c0-.552-.448-1-1-1h-18Z"/><path d="M3.657 11.657c0-.552.448-1 1-1h6v-6c0-.552.448-1 1-1s1 .448 1 1v14c0 .552-.448 1-1 1s-1-.448-1-1v-6h-6c-.552 0-1-.448-1-1Zm11.343 0c0-.552.448-1 1-1h2.657c.552 0 1 .448 1 1s-.448 1-1 1h-2.657c-.552 0-1-.448-1-1Z"/></g><defs><clipPath id="a"><path d="M0 0h24v24h-24z"/></clipPath></defs></svg>