<svg xmlns="http://www.w3.org/2000/svg" viewBox="0 0 24 24"><g clip-path="url(#a)"><path fill-rule="evenodd" d="M5.343 2.028c1.726-.774 4.107-1.028 6.657-1.028h.55v.005c2.341.036 4.506.306 6.107 1.024.867.389 1.6.908 2.112 1.625.517.722.781 1.602.781 2.654 0 1.963-.963 4.273-2.497 6.135-1.537 1.867-3.7 3.357-6.15 3.653l-.032.004-1.742-.001-.034-.004c-2.436-.31-4.6-1.804-6.14-3.668-1.536-1.86-2.505-4.162-2.505-6.12 0-1.053.264-1.932.781-2.655.513-.716 1.244-1.236 2.112-1.624Zm6.347.073c-2.387.021-4.455.284-5.897.93-.748.336-1.3.749-1.667 1.262-.364.507-.576 1.154-.576 2.014 0 1.635.832 3.698 2.253 5.42 1.41 1.707 3.328 2.997 5.397 3.272l1.604.001c2.078-.262 3.993-1.548 5.4-3.256 1.418-1.722 2.246-3.793 2.246-5.436 0-.86-.212-1.506-.575-2.014-.368-.513-.92-.926-1.668-1.261-1.504-.675-3.69-.932-6.207-.932h-.31Z" clip-rule="evenodd"/><path stroke="#A8A8A8" stroke-linecap="round" stroke-linejoin="round" stroke-width="1.1" d="M20.5 4.05s1.466-.309 2-1c.492-.637.5-2 .5-2"/><path stroke="#A8A8A8" stroke-linecap="round" stroke-linejoin="round" stroke-width="1.1" d="M3.5 4.05s-1.466-.309-2-1c-.492-.637-.5-2-.5-2"/><path stroke="#A8A8A8" stroke-linecap="round" d="M12 15.55v8"/><path fill-rule="evenodd" d="M15.59 16.05c.171 0 .359.01.58.062h.002c.482.113.892.37 1.17.717.445.066.937.36 1.11.916l.001.005c.097.322.042.684-.154.966.294.705.038 1.51-.591 1.942-.052.309-.207.602-.454.832-.24.224-.532.358-.829.405-.186.444-.527.787-.934 1-.548.292-1.09.14-1.452-.196-.34-.316-.54-.798-.54-1.275v-3.315c0-1.003.808-1.732 1.665-2.016.036-.011.072-.02.11-.023.094-.009.199-.018.308-.02h.009Zm-7.76.062c.22-.052.409-.062.58-.062h.008c.11.002.213.011.308.02.037.004.074.012.11.023.857.284 1.664 1.013 1.664 2.016v3.315c0 .477-.2.96-.54 1.275-.362.337-.903.488-1.452.197-.407-.214-.747-.557-.933-1-.297-.048-.59-.182-.829-.406-.247-.23-.403-.523-.454-.832-.63-.431-.885-1.237-.592-1.942-.195-.282-.25-.644-.154-.966l.002-.005c.173-.556.665-.85 1.109-.916.28-.348.688-.604 1.171-.717h.001Zm.226.974c-.31.073-.533.238-.66.423v.001c-.133.195-.348.298-.562.305-.068.004-.146.029-.21.072-.061.041-.1.093-.12.153-.013.045.006.099.032.122.238.21.306.565.132.852-.177.29-.081.675.248.855l-.24.439.238-.44c.202.11.35.32.36.573v.002c.002.1.047.216.154.316s.243.15.374.155c.294.005.572.195.66.496.074.255.256.467.512.6l.003.002c.075.04.125.041.158.035.038-.006.088-.028.145-.08.123-.114.22-.324.22-.543v-3.315c0-.402-.338-.836-.928-1.049-.063-.005-.117-.009-.168-.01-.12 0-.227.008-.348.036Zm7.54-.036c-.052.001-.105.005-.168.01-.59.213-.928.647-.928 1.049v3.315c0 .219.097.429.22.542.057.053.107.075.145.081.033.006.083.005.158-.035l.003-.001c.255-.134.437-.346.511-.6v-.001c.089-.301.367-.491.661-.496.131-.004.267-.055.374-.155.107-.1.151-.216.154-.316v-.002c.01-.253.157-.463.358-.572.329-.18.425-.564.248-.855-.175-.287-.107-.641.132-.852.026-.023.045-.077.032-.122-.02-.06-.059-.111-.12-.153-.065-.043-.143-.068-.21-.072-.214-.007-.43-.11-.563-.305-.126-.186-.349-.351-.659-.424-.122-.028-.227-.036-.349-.036Z" clip-rule="evenodd"/></g><defs><clipPath id="a"><path d="M0 0h24v24h-24z"/></clipPath></defs></svg>