<svg xmlns="http://www.w3.org/2000/svg" viewBox="0 0 24 24"><path fill-rule="evenodd" d="M3 4c0-1.657 1.343-3 3-3h12c1.657 0 3 1.343 3 3v18c0 .347-.18.668-.474.85-.295.183-.663.2-.973.044l-1.553-.776-1.553.776c-.281.141-.613.141-.894 0l-1.553-.776-1.553.776c-.281.141-.613.141-.894 0l-1.553-.776-1.553.776c-.281.141-.613.141-.894 0l-1.553-.776-1.553.776c-.31.155-.678.139-.973-.043-.295-.183-.474-.504-.474-.851v-18Zm3-1c-.552 0-1 .448-1 1v16.382l.553-.276c.281-.141.613-.141.894 0l1.553.776 1.553-.776c.281-.141.613-.141.894 0l1.553.776 1.553-.776c.281-.141.613-.141.894 0l1.553.776 1.553-.776c.281-.141.613-.141.894 0l.553.276v-16.382c0-.552-.448-1-1-1h-12Z" clip-rule="evenodd"/><path fill-rule="evenodd" d="M7 6c0-.552.448-1 1-1h8c.552 0 1 .448 1 1s-.448 1-1 1h-8c-.552 0-1-.448-1-1Z" clip-rule="evenodd"/><path fill-rule="evenodd" d="M7 10c0-.552.448-1 1-1h8c.552 0 1 .448 1 1s-.448 1-1 1h-8c-.552 0-1-.448-1-1Z" clip-rule="evenodd"/><path fill-rule="evenodd" d="M7 14c0-.552.448-1 1-1h8c.552 0 1 .448 1 1s-.448 1-1 1h-8c-.552 0-1-.448-1-1Z" clip-rule="evenodd"/></svg>