<svg xmlns="http://www.w3.org/2000/svg" viewBox="0 0 24 24"><path fill-rule="evenodd" d="M20 9c.552 0 1 .448 1 1v5c0 .552-.448 1-1 1s-1-.448-1-1v-5c0-.552.448-1 1-1Z" clip-rule="evenodd"/><path fill-rule="evenodd" d="M16.5 12.5c0-.552.448-1 1-1h5c.552 0 1 .448 1 1s-.448 1-1 1h-5c-.552 0-1-.448-1-1Z" clip-rule="evenodd"/><path fill-rule="evenodd" d="M3 2c0-1.105.895-2 2-2h14c1.105 0 2 .895 2 2v4.143c0 .552-.448 1-1 1s-1-.448-1-1v-4.143h-14v20h14v-3.143c0-.552.448-1 1-1s1 .448 1 1v3.143c0 1.105-.895 2-2 2h-14c-1.105 0-2-.895-2-2v-20Z" clip-rule="evenodd"/></svg>