<svg xmlns="http://www.w3.org/2000/svg" viewBox="0 0 24 24"><path fill-rule="evenodd" d="M11 4c-4.418 0-8 3.582-8 8s3.582 8 8 8c2.88 0 5.406-1.522 6.816-3.81.29-.47.906-.616 1.376-.327.47.29.617.906.327 1.376-1.759 2.855-4.916 4.761-8.519 4.761-5.523 0-10-4.477-10-10s4.477-10 10-10c4.814 0 8.832 3.401 9.785 7.931.114.54-.232 1.071-.772 1.185-.54.114-1.07-.232-1.185-.773-.762-3.623-3.979-6.343-7.828-6.343Z" clip-rule="evenodd"/><path fill-rule="evenodd" d="M14.139 6.986c.276-.478.888-.642 1.366-.366l4.708 2.719c.479.276.643.888.367 1.366-.277.478-.888.642-1.366.366l-4.709-2.719c-.478-.276-.642-.887-.366-1.366Zm6.997.755c-.479-.276-.642-.887-.366-1.366l.906-1.57c.276-.477.888-.641 1.366-.365.478.276.642.888.366 1.366l-.906 1.57c-.276.478-.888.642-1.366.365Z" clip-rule="evenodd"/></svg>