<svg xmlns="http://www.w3.org/2000/svg" viewBox="0 0 24 24"><g clip-path="url(#a)"><path fill-rule="evenodd" d="M0 2c0-1.105.895-2 2-2h15.872c.53 0 1.039.21 1.414.586l4.128 4.128c.375.375.586.884.586 1.414v15.872c0 1.105-.895 2-2 2h-20c-1.105 0-2-.895-2-2v-20Zm6 20h10v-9.5c0-.276-.224-.5-.5-.5h-9c-.276 0-.5.224-.5.5v9.5Zm12 0v-9.5c0-1.38-1.12-2.5-2.5-2.5h-9c-1.38 0-2.5 1.12-2.5 2.5v9.5h-2v-20h2v2.5c0 1.38 1.12 2.5 2.5 2.5h9c1.38 0 2.5-1.12 2.5-2.5v-2.372l4 4v15.872h-4Zm-2-20h-10v2.5c0 .276.224.5.5.5h9c.276 0 .5-.224.5-.5v-2.5Z" clip-rule="evenodd"/></g><defs><clipPath id="a"><path d="M0 0h24v24h-24z"/></clipPath></defs></svg>