<svg xmlns="http://www.w3.org/2000/svg" viewBox="0 0 24 24"><g clip-path="url(#a)"><path fill-rule="evenodd" d="m21.547 3.867-7.312 7.312c-.39.39-1.023.39-1.414 0-.39-.39-.39-1.024 0-1.414l7.312-7.312-17.807 6.178c-.426.148-.437.745-.018.91l7.722 3.021c.645.253 1.156.763 1.408 1.409l3.021 7.72c.165.42.762.409.91-.017l6.178-17.807Zm-.849-3.727c1.96-.68 3.842 1.201 3.162 3.162l-6.601 19.028c-.757 2.181-3.82 2.24-4.662.09l-3.021-7.72c-.05-.127-.15-.226-.275-.275l-7.722-3.022c-2.15-.841-2.09-3.905.091-4.661l19.028-6.602Z" clip-rule="evenodd"/></g><defs><clipPath id="a"><path d="M0 0h24v24h-24z"/></clipPath></defs></svg>