<svg xmlns="http://www.w3.org/2000/svg" viewBox="0 0 24 24"><g clip-path="url(#a)"><path fill-rule="evenodd" d="M12 9.5c-1.38 0-2.5 1.12-2.5 2.5s1.12 2.5 2.5 2.5c.552 0 1 .448 1 1s-.448 1-1 1c-2.485 0-4.5-2.015-4.5-4.5s2.015-4.5 4.5-4.5 4.5 2.015 4.5 4.5c0 .552-.448 1-1 1s-1-.448-1-1c0-1.38-1.12-2.5-2.5-2.5Z" clip-rule="evenodd"/><path d="M12.97 24h-1.95c-.89 0-1.66-.57-1.92-1.43l-.23-.76c-.57-.2-1.07-.41-1.55-.66l-.76.36c-.78.42-1.73.28-2.36-.35l-1.38-1.38c-.62-.62-.76-1.59-.35-2.37l.38-.7c-.26-.54-.47-1.04-.64-1.56l-.79-.28c-.85-.26-1.43-1.03-1.43-1.92v-1.95c0-.89.57-1.66 1.42-1.91l.76-.23c.2-.57.41-1.07.66-1.55l-.36-.76c-.42-.77-.27-1.74.35-2.36l1.38-1.38c.62-.62 1.59-.76 2.36-.35l.7.38c.55-.26 1.05-.47 1.56-.64l.28-.79c.26-.85 1.03-1.43 1.92-1.43h1.95c.89 0 1.66.57 1.91 1.42l.23.76c.57.2 1.07.41 1.55.66l.76-.36c.77-.41 1.74-.27 2.36.35l1.38 1.38c.63.63.77 1.58.35 2.36l-.38.7c.26.54.47 1.05.64 1.56l.79.28c.85.26 1.43 1.03 1.43 1.92v1.95c0 .88-.58 1.66-1.42 1.91l-.76.23c-.2.57-.41 1.07-.66 1.55l.36.76c.42.77.27 1.74-.34 2.36l-1.38 1.38c-.63.63-1.58.77-2.36.35l-.7-.38c-.54.26-1.05.47-1.56.64l-.28.79c-.26.85-1.03 1.43-1.92 1.43v.02Zm-5.7-4.86c.33 0 .66.08.97.24.39.2.79.37 1.21.5.65.21 1.16.72 1.35 1.36l.23.76h1.95l.23-.76c.19-.64.7-1.15 1.35-1.36.41-.13.82-.3 1.21-.5.61-.31 1.33-.31 1.92 0l.7.38 1.38-1.38-.38-.7c-.32-.59-.32-1.31 0-1.92.2-.39.37-.79.5-1.21.21-.65.72-1.16 1.36-1.35l.76-.23v-1.95l-.76-.23c-.64-.19-1.15-.7-1.36-1.35-.13-.41-.3-.82-.5-1.21-.32-.61-.31-1.33 0-1.92l.38-.7-1.38-1.38-.7.38c-.59.32-1.31.32-1.92 0-.39-.2-.79-.37-1.21-.5-.65-.21-1.16-.72-1.35-1.36l-.23-.76h-1.95l-.23.76c-.19.64-.7 1.15-1.35 1.36-.41.13-.82.3-1.21.5-.61.31-1.33.31-1.92 0l-.7-.38-1.38 1.38.38.7c.32.59.32 1.31 0 1.92-.2.39-.37.79-.5 1.21-.21.65-.72 1.16-1.36 1.35l-.76.23v1.95l.76.23c.64.19 1.15.7 1.36 1.35.13.42.3.82.5 1.21.31.61.31 1.33 0 1.92l-.38.7 1.38 1.38.7-.38c.3-.16.63-.24.96-.24h-.01Z"/></g><defs><clipPath id="a"><path d="M0 0h24v24h-24z"/></clipPath></defs></svg>