<svg xmlns="http://www.w3.org/2000/svg" viewBox="0 0 24 24"><g clip-path="url(#a)"><path d="M1 21.29c-.13 0-.26-.03-.38-.08-.4-.17-.65-.57-.62-1 0-.11.87-10.33 11-13v-4.21c0-.37.21-.72.54-.89.33-.17.73-.14 1.04.08l11 7.86c.26.19.42.49.42.81 0 .32-.15.62-.41.81l-6 4.44c-.44.33-1.07.24-1.4-.21-.33-.44-.24-1.07.21-1.4l4.89-3.62-8.29-5.94v3.06c0 .47-.33.88-.79.98-5.91 1.27-8.42 5.39-9.48 8.31 2.19-1.75 5.61-3.75 9.39-3.28.5.06.88.49.88.99v2.02l.41-.3c.45-.33 1.07-.24 1.4.21.33.44.24 1.07-.21 1.4l-2 1.48c-.3.23-.71.26-1.04.09-.34-.17-.55-.51-.55-.89v-3.06c-4.9 0-9.19 4.94-9.24 5-.19.23-.47.35-.76.35l-.01-.01Z"/></g><defs><clipPath id="a"><path d="M0 0h24v24h-24z"/></clipPath></defs></svg>