<svg xmlns="http://www.w3.org/2000/svg" viewBox="0 0 24 24"><path fill-rule="evenodd" d="M11.45 1.077c.36-.103.74-.103 1.1 0l6 1.718c.86.246 1.45 1.032 1.45 1.925v1.248c0 .552-.448 1-1 1s-1-.448-1-1v-1.25l-6-1.718-6 1.718v10.352c0 .29.127.568.348.758l5.652 4.854 5.651-4.854c.222-.19.349-.467.349-.759v-4.569c0-.552.448-1 1-1s1 .448 1 1v4.57c0 .874-.382 1.705-1.045 2.275l-5.652 4.854c-.75.644-1.857.644-2.606 0l-5.652-4.854c-.663-.57-1.045-1.401-1.045-2.276v-10.35c0-.892.59-1.678 1.45-1.924l6-1.718Z" clip-rule="evenodd"/></svg>