<svg xmlns="http://www.w3.org/2000/svg" viewBox="0 0 24 24"><path fill-rule="evenodd" d="M14.981 4c.277 0 .5.224.5.5v1.822c0 .488.296.929.748 1.114l5.345 2.19c1.468.601 2.426 2.03 2.426 3.616v5.267c0 .276-.224.5-.5.5s-.5-.224-.5-.5v-5.267c0-1.181-.712-2.243-1.805-2.69l-5.345-2.19c-.826-.34-1.369-1.145-1.369-2.04v-1.822c0-.276.224-.5.5-.5Z" clip-rule="evenodd"/><path fill-rule="evenodd" d="M9.019 4c-.277 0-.5.224-.5.5v1.822c0 .488-.296.929-.748 1.114l-5.345 2.19c-1.469.601-2.426 2.03-2.426 3.616v5.267c0 .276.224.5.5.5s.5-.224.5-.5v-5.267c0-1.181.712-2.243 1.804-2.69l5.346-2.19c.826-.34 1.369-1.145 1.369-2.04v-1.822c0-.276-.224-.5-.5-.5Z" clip-rule="evenodd"/><path fill-rule="evenodd" d="M10.069 5.707c.2-.19.517-.181.706.02l.659.696c.293.31.785.326 1.096.036l.008-.008.01-.01.002-.002.006-.007.667-.705c.19-.201.506-.21.707-.02.2.19.21.506.02.706l-.653.69c-.026.03-.054.058-.063.067l-.003.002-.01.01c-.713.674-1.84.642-2.514-.072l-.658-.697c-.19-.2-.181-.517.02-.706Z" clip-rule="evenodd"/><path fill-rule="evenodd" d="M5.611 13.37c.276 0 .5.224.5.5v4.556c0 .276-.224.5-.5.5s-.5-.224-.5-.5v-4.556c0-.276.224-.5.5-.5Z" clip-rule="evenodd"/><path fill-rule="evenodd" d="M18.389 13.37c.276 0 .5.224.5.5v4.556c0 .276-.224.5-.5.5s-.5-.224-.5-.5v-4.556c0-.276.224-.5.5-.5Z" clip-rule="evenodd"/></svg>