<svg xmlns="http://www.w3.org/2000/svg" viewBox="0 0 24 24"><path fill-rule="evenodd" d="M12.754.787c-.117-.31-.464-.466-.774-.348-.31.117-.465.463-.348.773l.332.876.003.008c1.371 3.468 2.974 6.84 4.798 10.092.014.024.029.047.045.07.596.786.752 1.82.416 2.746-.273.537-.824.97-1.503 1.295-.68.326-1.416.506-1.922.573l-.109.014-.026.003c-.617.081-1.306.171-1.93.366-.64.2-1.274.525-1.729 1.12l-.019.027c-.533.785-.722 1.753-.523 2.68.063.32.165.63.303.925l.008.015c.07.139.118.288.142.442v.483c0 .331.269.6.6.6.331 0 .6-.269.6-.6v-.526c0-.026-.002-.053-.005-.079-.04-.296-.128-.584-.262-.852-.095-.205-.166-.421-.21-.644l-.002-.012c-.13-.602-.01-1.231.332-1.743.248-.318.62-.534 1.121-.69.516-.161 1.109-.24 1.755-.325l.108-.014h.002c.61-.08 1.47-.291 2.284-.68.804-.385 1.638-.981 2.076-1.876.009-.018.016-.035.023-.054.488-1.305.281-2.767-.547-3.885-1.79-3.194-3.362-6.504-4.708-9.908l-.33-.872Zm-5.576 11.502c.185-.275.112-.648-.163-.833-.275-.185-.648-.112-.833.163-.18.269-.463.777-.633 1.327-.156.503-.292 1.278.157 1.871.348.46.931.65 1.53.714.62.066 1.386.012 2.268-.142.815-.142 1.48-.298 2.005-.42l.022-.006.038-.01c.47-.143.963-.223 1.46-.236.331-.01.592-.285.583-.617-.009-.33-.285-.592-.616-.583-.597.016-1.189.111-1.757.282-.525.123-1.162.272-1.941.408-.828.144-1.471.18-1.935.131-.483-.051-.653-.182-.7-.245-.067-.088-.11-.331.032-.792.128-.414.351-.816.483-1.012Z" clip-rule="evenodd"/></svg>