<svg xmlns="http://www.w3.org/2000/svg" viewBox="0 0 24 24"><path fill-rule="evenodd" d="M17.207 16.293c.39.39.39 1.024 0 1.414l-4.5 4.5c-.39.39-1.024.39-1.414 0l-4.5-4.5c-.39-.39-.39-1.024 0-1.414.39-.39 1.024-.39 1.414 0l3.793 3.793 3.793-3.793c.39-.39 1.024-.39 1.414 0Z" clip-rule="evenodd"/><path fill-rule="evenodd" d="M17.207 8.207c.39-.39.39-1.024 0-1.414l-4.5-4.5c-.39-.39-1.024-.39-1.414 0l-4.5 4.5c-.39.39-.39 1.024 0 1.414.39.39 1.024.39 1.414 0l3.793-3.793 3.793 3.793c.39.39 1.024.39 1.414 0Z" clip-rule="evenodd"/></svg>