<svg xmlns="http://www.w3.org/2000/svg" viewBox="0 0 24 24"><g clip-path="url(#a)"><path fill-rule="evenodd" d="M9.618 1.76c.072-.735.692-1.31 1.446-1.31h1.807c.755 0 1.375.575 1.447 1.31h1.264c.304 0 .55.247.55.55 0 .304-.246.55-.55.55h-1.258c-.012.321-.127.616-.314.85.17.214.28.475.308.76h1.264c.304 0 .55.247.55.55 0 .304-.246.55-.55.55h-1.258c-.012.322-.127.616-.314.851.17.213.28.475.308.76h1.264c.304 0 .55.246.55.55 0 .304-.246.55-.55.55h-1.258c-.012.321-.127.615-.314.85.17.214.28.475.308.76h1.264c.304 0 .55.247.55.55 0 .304-.246.55-.55.55h-1.258c-.012.322-.127.616-.314.851.17.213.28.474.308.76h1.264c.304 0 .55.246.55.55 0 .304-.246.55-.55.55h-1.258c-.012.321-.127.615-.314.85.17.213.28.475.308.76h1.264c.304 0 .55.247.55.55 0 .304-.246.55-.55.55h-1.258c-.005.137-.028.268-.068.391h.874c1.03 0 1.905.811 1.905 1.854v.81c0 .659-.362 1.266-.933 1.595l-1.626.938-.375.54c-.442.637-1.175 1.01-1.955 1.01h-.416c-.826 0-1.606-.425-2.031-1.127l-.267-.44-1.598-.921c-.57-.33-.934-.936-.934-1.594v-.811c0-1.043.875-1.854 1.906-1.854h.874c-.04-.123-.063-.255-.068-.39h-1.258c-.304 0-.55-.247-.55-.55 0-.304.246-.55.55-.55h1.264c.028-.286.139-.548.308-.76-.187-.236-.303-.53-.314-.85h-1.258c-.304 0-.55-.247-.55-.55 0-.305.246-.55.55-.55h1.264c.028-.287.139-.548.308-.76-.187-.236-.303-.53-.314-.851h-1.258c-.304 0-.55-.247-.55-.55 0-.304.246-.55.55-.55h1.264c.028-.286.139-.547.308-.76-.187-.236-.303-.53-.314-.85h-1.258c-.304 0-.55-.247-.55-.55 0-.305.246-.55.55-.55h1.264c.028-.286.139-.548.308-.76-.187-.236-.303-.53-.314-.851h-1.258c-.304 0-.55-.247-.55-.55 0-.304.246-.55.55-.55h1.264c.028-.286.139-.547.308-.76-.187-.235-.303-.53-.314-.85h-1.258c-.304 0-.55-.247-.55-.55 0-.304.246-.55.55-.55h1.264Zm1.446 2.5c-.195 0-.353.159-.353.354v.904c0 .195.158.353.353.353h1.807c.196 0 .354-.158.354-.353v-.904c0-.195-.158-.353-.354-.353h-1.807Zm1.807-1.1c.196 0 .354-.158.354-.353v-.903c0-.196-.158-.354-.354-.354h-1.807c-.195 0-.353.158-.353.354v.903c0 .195.158.354.353.354h1.807Zm0 3.811h-1.807c-.195 0-.353.158-.353.354v.903c0 .195.158.354.353.354h1.807c.196 0 .354-.159.354-.354v-.903c0-.196-.158-.354-.354-.354Zm0 2.71h-1.807c-.195 0-.353.159-.353.354v.904c0 .195.158.353.353.353h1.807c.196 0 .354-.158.354-.353v-.904c0-.195-.158-.353-.354-.353Zm0 2.711h-1.807c-.195 0-.353.158-.353.354v.903c0 .195.158.354.353.354h1.807c.196 0 .354-.159.354-.354v-.903c0-.196-.158-.354-.354-.354Zm0 2.71h-1.807c-.195 0-.353.159-.353.354v.904c0 .195.158.353.353.353h1.807c.196 0 .354-.158.354-.353v-.904c0-.195-.158-.353-.354-.353Zm-4.065 2.801c-.464 0-.806.359-.806.754v.81c0 .252.141.502.383.642l1.843 1.063.413.68c.22.362.636.598 1.09.598h.417c.43 0 .821-.206 1.051-.537l.516-.743 1.84-1.061c.241-.14.382-.39.382-.641v-.811c0-.395-.341-.754-.805-.754h-6.324Z" clip-rule="evenodd"/></g><defs><clipPath id="a"><path d="M0 0h24v24h-24z"/></clipPath></defs></svg>