<svg xmlns="http://www.w3.org/2000/svg" viewBox="0 0 24 24"><path fill-rule="evenodd" d="M10.34 2.028c-.957.72-1.44 1.811-1.172 3.15.599 2.997.777 3.938.928 4.923.046.3-.16.581-.46.628-.3.046-.581-.16-.627-.46-.147-.957-.32-1.873-.92-4.875-.354-1.768.306-3.28 1.589-4.245 1.262-.95 3.088-1.349 5.081-1.053 2.276.338 4.246 1.486 5.64 3.342 1.392 1.852 2.19 4.377 2.19 7.446 0 6.201-2.741 10.752-6.672 11.947-1.772.538-3.453.263-4.69-.782-1.228-1.037-1.929-2.757-1.921-4.935 0-.08.001-.148.004-.233l.004-.117c.015-.458.012-.972-.027-2.207-.01-.304.229-.558.532-.567.304-.01.558.229.567.532.04 1.24.043 1.783.027 2.278l-.004.115-.003.203c-.007 1.95.617 3.32 1.53 4.09.905.765 2.182 1.02 3.662.57 3.276-.996 5.89-4.944 5.89-10.894 0-2.88-.747-5.16-1.968-6.785-1.217-1.62-2.927-2.619-4.922-2.915-1.771-.263-3.282.108-4.259.844Z" clip-rule="evenodd"/><path fill-rule="evenodd" d="M12.48 8.754c.169.253.1.595-.152.763-3.027 2.018-6.305 3.24-9.778 3.24-.304 0-.55-.246-.55-.55 0-.304.246-.55.55-.55 3.205 0 6.274-1.126 9.168-3.055.252-.169.594-.1.762.152Z" clip-rule="evenodd"/><path fill-rule="evenodd" d="M13.285 14.597c-1.19-.238-2.062-.132-4.835.537-2.064.498-3.239.704-4.682.704-.304 0-.55-.247-.55-.55 0-.304.246-.55.55-.55 1.312 0 2.386-.181 4.424-.673 2.766-.668 3.854-.838 5.309-.547.297.06.49.35.43.647-.059.298-.348.492-.646.432Z" clip-rule="evenodd"/></svg>