<svg xmlns="http://www.w3.org/2000/svg" viewBox="0 0 24 24"><path fill-rule="evenodd" d="M3.984 8.219c-.835-.598-.835-1.84 0-2.438l7.627-5.47c.523-.375 1.226-.375 1.748 0l7.628 5.47c.834.599.834 1.84 0 2.438l-7.627 5.47c-.523.375-1.226.375-1.749 0l-7.627-5.47Zm1.732-1.219 6.77 4.855 6.769-4.855-6.77-4.855-6.77 4.855Z" clip-rule="evenodd"/><path fill-rule="evenodd" d="m5.716 12 .062-.044c.449-.322.552-.947.23-1.396-.322-.449-.947-.552-1.396-.23l-.628.451c-.835.598-.835 1.84 0 2.438l7.627 5.47c.523.375 1.226.375 1.748 0l7.628-5.47c.834-.598.834-1.84 0-2.438l-.629-.45c-.449-.323-1.073-.22-1.395.23-.322.448-.22 1.073.23 1.395l.062.044-6.77 4.855-6.77-4.855Z" clip-rule="evenodd"/><path fill-rule="evenodd" d="m5.716 17 .062-.044c.449-.322.552-.947.23-1.396-.322-.449-.947-.552-1.396-.23l-.628.451c-.835.598-.835 1.84 0 2.438l7.627 5.47c.523.375 1.226.375 1.748 0l7.628-5.47c.834-.599.834-1.84 0-2.438l-.629-.45c-.449-.323-1.073-.22-1.395.23-.322.448-.22 1.073.23 1.395l.062.044-6.77 4.855-6.77-4.855Z" clip-rule="evenodd"/></svg>