<svg xmlns="http://www.w3.org/2000/svg" viewBox="0 0 24 24"><g clip-path="url(#a)"><path d="M5.39 24c-.26 0-.52-.08-.75-.24-.44-.31-.65-.85-.53-1.38l1.59-7.13-5.26-4.78c-.39-.35-.54-.91-.37-1.42.17-.5.61-.85 1.13-.9l6.89-.61 2.69-6.71c.2-.5.68-.83 1.22-.83.54 0 1.01.33 1.22.83l2.69 6.72 6.89.61c.52.05.96.4 1.13.9.17.5.02 1.06-.37 1.42l-5.28 4.79c.02.47-.3.91-.78 1.02-.54.12-1.07-.22-1.19-.76-.13-.6.06-1.22.51-1.63l4.27-3.87-5.57-.49c-.62-.06-1.15-.46-1.39-1.04l-2.13-5.31-2.1 5.25c-.35.89-1.04 1.07-1.41 1.11l-5.57.49 4.23 3.84c.49.44.69 1.05.55 1.66l-1.27 5.7 4.69-2.98c.52-.34 1.21-.35 1.75 0l4.71 2.99-.25-1.14c-.12-.54.22-1.07.76-1.19.54-.12 1.07.22 1.19.76l.61 2.74c.12.53-.09 1.07-.53 1.38-.43.3-1 .32-1.45.03l-5.9-3.75-5.91 3.75c-.21.14-.46.2-.7.2l-.01-.03Zm6.82-4.09h-.01.01Z"/></g><defs><clipPath id="a"><path d="M0 0h24v24h-24z"/></clipPath></defs></svg>