<svg xmlns="http://www.w3.org/2000/svg" viewBox="0 0 24 24"><g fill-rule="evenodd" clip-path="url(#a)" clip-rule="evenodd"><path d="M12 2c-5.523 0-10 4.477-10 10s4.477 10 10 10 10-4.477 10-10-4.477-10-10-10Zm-12 10c0-6.627 5.373-12 12-12s12 5.373 12 12-5.373 12-12 12-12-5.373-12-12Z"/><path d="M12 4.714c.552 0 1 .448 1 1v5.872l3.636 3.636c.39.39.39 1.023 0 1.414-.39.39-1.024.39-1.414 0l-3.636-3.636c-.375-.375-.586-.884-.586-1.414v-5.872c0-.552.448-1 1-1Z"/></g><defs><clipPath id="a"><path d="M0 0h24v24h-24z"/></clipPath></defs></svg>