<svg xmlns="http://www.w3.org/2000/svg" viewBox="0 0 24 24"><path fill-rule="evenodd" d="M4 12c0-1.657 1.343-3 3-3h10c1.657 0 3 1.343 3 3v8c0 1.657-1.343 3-3 3h-10c-1.657 0-3-1.343-3-3v-8Zm3-1c-.552 0-1 .448-1 1v8c0 .552.448 1 1 1h10c.552 0 1-.448 1-1v-8c0-.552-.448-1-1-1h-10Z" clip-rule="evenodd"/><path fill-rule="evenodd" d="M8.025 6.552c.222-1.998 1.917-3.552 3.975-3.552.552 0 1-.448 1-1s-.448-1-1-1c-3.112 0-5.67 2.368-5.97 5.401-.004.033-.005.066-.005.099v3.5c0 .552.447 1 1 1 .552 0 1-.448 1-1v-3.448Z" clip-rule="evenodd"/><path fill-rule="evenodd" d="M12 15c-.552 0-1 .448-1 1s.448 1 1 1 1-.448 1-1-.448-1-1-1Zm-3 1c0-1.657 1.343-3 3-3s3 1.343 3 3-1.343 3-3 3-3-1.343-3-3Z" clip-rule="evenodd"/></svg>