<svg xmlns="http://www.w3.org/2000/svg" viewBox="0 0 24 24"><path fill-rule="evenodd" d="M12 7c.552 0 1 .448 1 1v5.63c0 .552-.448 1-1 1s-1-.448-1-1v-5.63c0-.552.448-1 1-1Zm0 9.96c.552 0 1 .448 1 1v.04c0 .552-.448 1-1 1s-1-.448-1-1v-.04c0-.552.448-1 1-1Z" clip-rule="evenodd"/><path fill-rule="evenodd" d="M9.428 3.344c1.165-1.942 3.98-1.942 5.145 0l8.467 14.112c1.2 2-.24 4.544-2.572 4.544h-16.936c-2.331 0-3.772-2.544-2.572-4.544l8.468-14.112Zm3.43 1.029c-.389-.648-1.327-.648-1.715 0l-8.468 14.112c-.4.667.08 1.515.857 1.515h16.936c.777 0 1.257-.848.857-1.515l-8.467-14.112Z" clip-rule="evenodd"/></svg>