<svg xmlns="http://www.w3.org/2000/svg" viewBox="0 0 24 24"><path fill-rule="evenodd" d="M21.303 9.738c-5.134-4.984-13.472-4.984-18.607 0-.396.384-1.029.375-1.414-.021-.384-.397-.375-1.03.022-1.414 5.91-5.737 15.482-5.737 21.393 0 .396.384.405 1.017.02 1.414-.384.396-1.017.405-1.413.02Zm-3.344 2.854c-3.287-3.19-8.63-3.19-11.917 0-.396.385-1.03.375-1.414-.021-.384-.396-.375-1.03.021-1.414 4.064-3.944 10.64-3.944 14.703 0 .396.385.406 1.018.021 1.414-.385.396-1.018.406-1.414.021Zm-3.698 2.914c-1.327-.986-3.193-.986-4.52 0-.444.33-1.07.237-1.4-.206-.329-.444-.236-1.07.207-1.4 2.035-1.512 4.87-1.512 6.906 0 .443.33.535.957.206 1.4-.33.443-.956.535-1.4.206Zm-1.523 2.112c.384.396.375 1.03-.021 1.414l-.02.019c-.396.385-1.03.375-1.414-.021-.384-.396-.375-1.03.021-1.414l.02-.02c.396-.384 1.03-.374 1.414.022Z" clip-rule="evenodd"/></svg>