<svg xmlns="http://www.w3.org/2000/svg" viewBox="0 0 24 24"><g fill-rule="evenodd" clip-path="url(#a)" clip-rule="evenodd"><path d="M12 2c-5.523 0-10 4.477-10 10s4.477 10 10 10 10-4.477 10-10-4.477-10-10-10Zm-12 10c0-6.627 5.373-12 12-12s12 5.373 12 12-5.373 12-12 12-12-5.373-12-12Z"/><path d="M11 2.05c-5.053.5-9 4.765-9 9.95s3.947 9.45 9 9.95v-19.9Zm-.089-2.001c1.195-.108 2.089.872 2.089 1.951v20c0 1.079-.894 2.059-2.089 1.951-6.118-.55-10.911-5.69-10.911-11.951 0-6.26 4.793-11.4 10.911-11.951Z"/><path d="M2 6c0-.552.448-1 1-1h8c.552 0 1 .448 1 1s-.448 1-1 1h-8c-.552 0-1-.448-1-1Z"/><path d="M2 18c0-.552.448-1 1-1h8c.552 0 1 .448 1 1s-.448 1-1 1h-8c-.552 0-1-.448-1-1Z"/><path d="M1 12c0-.552.448-1 1-1h9c.552 0 1 .448 1 1s-.448 1-1 1h-9c-.552 0-1-.448-1-1Z"/></g><defs><clipPath id="a"><path d="M0 0h24v24h-24z"/></clipPath></defs></svg>