<svg xmlns="http://www.w3.org/2000/svg" viewBox="0 0 24 24"><path fill-rule="evenodd" d="M22.707 23.293c.39-.39 1.024-.39 1.414 0l5.657 5.657c.39.39.39 1.023 0 1.414-.39.39-1.023.39-1.414 0l-5.657-5.657c-.39-.39-.39-1.024 0-1.414Z" clip-rule="evenodd"/><path fill-rule="evenodd" d="M13 3c-5.523 0-10 4.477-10 10s4.477 10 10 10 10-4.477 10-10-4.477-10-10-10Zm-12 10c0-6.627 5.373-12 12-12s12 5.373 12 12-5.373 12-12 12-12-5.373-12-12Z" clip-rule="evenodd"/><path fill-rule="evenodd" d="M12 17v-8c0-.552.448-1 1-1s1 .448 1 1v8c0 .552-.448 1-1 1s-1-.448-1-1Z" clip-rule="evenodd"/><path fill-rule="evenodd" d="M8 13c0-.552.448-1 1-1h8c.552 0 1 .448 1 1s-.448 1-1 1h-8c-.552 0-1-.448-1-1Z" clip-rule="evenodd"/></svg>