<svg xmlns="http://www.w3.org/2000/svg" width="146" height="46" viewBox="0 0 146 46" fill="white" style="width:100%" alt="Prenuvo header logo link" title="Prenuvo header logo link">
  <path d="M35.3492 13.0098C31.9997 13.0098 29.0385 14.7088 27.2812 17.301V13.8544C27.2812 13.3884 26.9026 13.0195 26.4463 13.0195C25.99 13.0195 25.6113 13.3981 25.6113 13.8544V31.67C25.6113 32.136 25.99 32.5049 26.4463 32.5049C26.9026 32.5049 27.2812 32.1263 27.2812 31.67V22.7671C27.2812 18.3204 30.9026 14.6991 35.3492 14.6991C35.8152 14.6991 36.1841 14.3205 36.1841 13.8641C36.1841 13.4078 35.8055 13.0292 35.3492 13.0292" fill="white"></path>
  <path d="M47.4653 32.4951C42.0964 32.4951 37.7178 28.1262 37.7178 22.7476C37.7178 17.3689 42.0867 13 47.4653 13C52.844 13 57.2129 17.3689 57.2129 22.7476C57.2129 23.2136 56.8343 23.5825 56.378 23.5825H39.4459C39.8634 27.6408 43.3003 30.8155 47.4751 30.8155C49.6304 30.8155 51.6595 29.9806 53.1838 28.4563C53.5139 28.1262 54.0382 28.1262 54.3683 28.4563C54.6984 28.7864 54.6984 29.3107 54.3683 29.6408C52.5236 31.4854 50.077 32.4951 47.4751 32.4951M39.4459 21.9126H55.4945C55.077 17.8544 51.6401 14.6796 47.4653 14.6796C43.2906 14.6796 39.8634 17.8544 39.4362 21.9126" fill="white"></path>
  <path d="M70.6214 13.0098C67.6214 13.0098 64.971 14.4952 63.3496 16.7671V13.8544C63.3496 13.3884 62.971 13.0195 62.5146 13.0195C62.0583 13.0195 61.6797 13.3981 61.6797 13.8544V31.67C61.6797 32.136 62.0583 32.5049 62.5146 32.5049C62.971 32.5049 63.3496 32.1263 63.3496 31.67V21.9709C63.3496 17.9612 66.6117 14.6991 70.6214 14.6991C74.6311 14.6991 77.8933 17.9612 77.8933 21.9709V31.67C77.8933 32.136 78.2719 32.5049 78.7282 32.5049C79.1845 32.5049 79.5632 32.1263 79.5632 31.67V21.9709C79.5632 17.0389 75.5535 13.0195 70.6117 13.0195" fill="white"></path>
  <path d="M101.049 13.0097C100.583 13.0097 100.214 13.3883 100.214 13.8447V23.5437C100.214 27.5534 96.9515 30.8155 92.9418 30.8155C88.932 30.8155 85.6699 27.5534 85.6699 23.5437V13.8447C85.6699 13.3786 85.2913 13.0097 84.835 13.0097C84.3786 13.0097 84 13.3883 84 13.8447V23.5437C84 28.4757 88.0194 32.4951 92.9515 32.4951C95.9515 32.4951 98.6019 31.0097 100.223 28.7379V31.6505C100.223 32.1165 100.602 32.4854 101.058 32.4854C101.515 32.4854 101.893 32.1068 101.893 31.6505V13.835C101.893 13.3689 101.515 13 101.058 13" fill="white"></path>
  <path d="M115.311 32.4951C114.981 32.4951 114.68 32.3009 114.544 31.9999L106.437 14.1844C106.243 13.7669 106.437 13.262 106.854 13.0776C107.282 12.8834 107.777 13.0776 107.961 13.4951L115.311 29.631L122.66 13.4951C122.854 13.0776 123.35 12.8931 123.767 13.0776C124.185 13.2718 124.369 13.7669 124.185 14.1844L116.078 31.9999C115.942 32.3009 115.641 32.4951 115.311 32.4951Z" fill="white"></path>
  <path d="M135.883 32.4951C130.514 32.4951 126.136 28.1262 126.136 22.7476C126.136 17.3689 130.505 13 135.883 13C141.262 13 145.631 17.3689 145.631 22.7476C145.631 28.1262 141.262 32.4951 135.883 32.4951ZM135.883 14.6796C131.437 14.6796 127.815 18.301 127.815 22.7476C127.815 27.1942 131.437 30.8155 135.883 30.8155C140.33 30.8155 143.951 27.1942 143.951 22.7476C143.951 18.301 140.33 14.6796 135.883 14.6796Z" fill="white"></path>
  <path d="M11.4175 13.0097C6.04854 13.0097 1.68932 17.3689 1.67961 22.7282V13.8447C1.67961 13.3786 1.30097 13.0097 0.84466 13.0097C0.38835 13.0097 0 13.3786 0 13.8447V45.165C0 45.6311 0.378641 46 0.834952 46C1.29126 46 1.6699 45.6214 1.6699 45.165V22.7767C1.67961 28.1359 6.04854 32.4951 11.4078 32.4951C16.767 32.4951 21.1553 28.1262 21.1553 22.7476C21.1553 17.3689 16.7864 13 11.4078 13M11.4078 30.8155C6.96117 30.8155 3.33981 27.1942 3.33981 22.7476C3.33981 18.301 6.96117 14.6796 11.4078 14.6796C15.8544 14.6796 19.4757 18.301 19.4757 22.7476C19.4757 27.1942 15.8544 30.8155 11.4078 30.8155Z" fill="white"></path>
</svg>